# Blender v2.77 (sub 0) OBJ File: 'carro_brinquedo.blend'
# www.blender.org
mtllib carro_porta.mtl
o porta_Mesh33_Group33_Model
v -81.106689 34.999901 -1.623291
v -81.137695 34.999901 -4.482300
v -81.137695 34.999901 -2.108276
v -79.843689 34.999901 -4.652283
v -81.011719 34.999901 -1.146301
v -81.106689 29.999901 -1.623292
v -81.011719 29.999901 -1.146302
v -81.137695 29.999901 -2.108277
v -81.137695 34.999905 -16.497253
v -81.137695 29.999905 -16.497253
v -81.137695 37.999901 -4.482299
v -81.137695 37.999905 -14.482299
v -81.137695 34.999905 -14.482300
v -80.379700 34.999905 -28.066284
v -80.379700 29.999905 -28.066284
v -78.129700 34.999908 -39.379272
v -78.129700 29.999908 -39.379272
v -74.421692 34.999908 -50.301270
v -74.421692 29.999908 -50.301270
v -69.320679 34.999912 -60.646301
v -69.320679 29.999910 -60.646301
v -62.912720 34.999912 -70.236267
v -62.912720 29.999912 -70.236267
v -55.311707 34.999912 -78.903259
v -55.311707 29.999914 -78.903259
v -53.149719 34.999912 -80.772278
v -53.149719 29.999914 -80.772278
v -53.065735 34.999912 -80.839294
v -53.065735 29.999914 -80.839294
v -51.847717 34.999916 -81.679260
v -51.847717 29.999914 -81.679260
v -50.570679 34.999916 -82.427307
v -50.570679 29.999914 -82.427307
v -49.242737 34.999916 -83.081299
v -49.242737 29.999914 -83.081299
v -47.870728 34.999916 -83.637268
v -47.870728 29.999914 -83.637268
v -46.462708 34.999916 -84.091248
v -46.462708 29.999914 -84.091248
v -45.024719 34.999916 -84.441284
v -45.024719 29.999914 -84.441284
v -43.564697 34.999916 -84.686279
v -43.564697 29.999914 -84.686279
v -42.090698 34.999916 -84.824280
v -42.090698 29.999914 -84.824280
v -40.304688 34.999916 -84.861267
v -40.304688 29.999914 -84.861267
v -34.140686 34.999916 -84.858276
v -34.140686 29.999914 -84.858276
v -33.570679 34.999916 -84.820251
v -33.570679 29.999914 -84.820251
v -33.010681 34.999916 -84.708252
v -33.010681 29.999914 -84.708252
v -32.469727 34.999916 -84.524292
v -32.469727 29.999914 -84.524292
v -31.957703 34.999916 -84.271301
v -31.957703 29.999914 -84.271301
v -31.483704 34.999916 -83.954285
v -31.483704 29.999914 -83.954285
v -31.054688 34.999916 -83.577271
v -31.054688 29.999914 -83.577271
v -30.677734 34.999916 -83.148254
v -30.677734 29.999914 -83.148254
v -30.360718 34.999916 -82.673279
v -30.360718 29.999914 -82.673279
v -30.108704 34.999916 -82.160278
v -30.108704 29.999914 -82.160278
v -29.925720 34.999916 -81.619263
v -29.925720 29.999914 -81.619263
v -29.814697 34.999912 -81.059265
v -29.814697 29.999914 -81.059265
v -29.777710 34.999912 -80.489258
v -29.777710 29.999914 -80.489258
v -29.805725 31.999905 -28.066284
v -29.805725 29.999905 -28.066284
v -29.805725 34.999905 -28.066284
v -29.820679 34.999901 -0.895264
v -29.820679 29.999901 -0.895265
v -29.842712 34.999901 -0.568298
v -29.842712 29.999901 -0.568299
v -29.906738 34.999901 -0.247253
v -29.906738 29.999901 -0.247254
v -30.011719 34.999901 0.061707
v -30.011719 29.999901 0.061706
v -30.156738 34.999901 0.355713
v -30.156738 29.999901 0.355712
v -30.338684 34.999901 0.627747
v -30.338684 29.999901 0.627746
v -30.554688 34.999901 0.873718
v -30.554688 29.999901 0.873717
v -30.800720 34.999901 1.089722
v -30.800720 29.999901 1.089721
v -31.072693 34.999901 1.271729
v -31.072693 29.999901 1.271728
v -31.366699 34.999901 1.415710
v -31.366699 29.999901 1.415710
v -31.676697 34.999901 1.520752
v -31.676697 29.999901 1.520751
v -31.997681 34.999901 1.584717
v -31.997681 29.999901 1.584716
v -32.323730 34.999901 1.606750
v -32.323730 29.999901 1.606750
v -77.420715 34.999901 1.608704
v -77.420715 29.999901 1.608703
v -77.905701 34.999901 1.576721
v -77.905701 29.999901 1.576720
v -78.382690 34.999901 1.481750
v -78.382690 29.999901 1.481750
v -78.843689 34.999901 1.325745
v -78.843689 29.999901 1.325744
v -79.279724 34.999901 1.110718
v -79.279724 29.999901 1.110717
v -79.683716 34.999901 0.840698
v -79.683716 29.999901 0.840697
v -80.049683 34.999901 0.519714
v -80.049683 29.999901 0.519714
v -80.369690 34.999901 0.154724
v -80.369690 29.999901 0.154723
v -80.639709 34.999901 -0.249268
v -80.639709 29.999901 -0.249268
v -80.854736 34.999901 -0.685303
v -80.854736 29.999901 -0.685304
v -78.637695 34.999901 -5.152283
v -77.602722 34.999901 -5.946289
v -76.807678 34.999901 -6.982300
v -76.308716 34.999901 -8.188293
v -76.137695 34.999901 -9.482300
v -73.416687 34.999905 -33.781250
v -35.517700 34.999905 -33.781250
v -35.492737 34.999912 -79.144287
v -40.247681 34.999912 -79.146301
v -41.765686 34.999912 -79.115295
v -42.824707 34.999912 -79.016296
v -43.873718 34.999912 -78.840271
v -44.906738 34.999912 -78.588257
v -45.918701 34.999912 -78.262268
v -46.904724 34.999912 -77.863281
v -47.859680 34.999912 -77.393250
v -48.776733 34.999912 -76.855286
v -49.595703 34.999912 -76.291260
v -51.275696 34.999912 -74.838257
v -58.368713 34.999912 -66.750305
v -64.360718 34.999908 -57.782288
v -69.130737 34.999908 -48.109253
v -72.597717 34.999908 -37.896301
v -76.308716 34.999901 -10.776306
v -76.807678 34.999905 -11.982300
v -77.602722 34.999905 -13.017273
v -78.637695 34.999905 -13.812256
v -79.843689 34.999905 -14.311279
v -79.843689 37.999905 -14.311278
v -79.843689 37.999901 -4.652282
v -78.637695 37.999901 -5.152282
v -77.602722 37.999901 -5.946289
v -76.807678 37.999901 -6.982299
v -76.308716 37.999901 -8.188293
v -76.137695 37.999901 -9.482299
v -76.308716 37.999901 -10.776305
v -76.807678 37.999905 -11.982299
v -77.602722 37.999905 -13.017272
v -78.637695 37.999905 -13.812255
v -73.416687 29.999907 -33.781250
v -72.597717 29.999907 -37.896301
v -35.517700 29.999907 -33.781250
v -35.492737 29.999914 -79.144287
v -40.247681 29.999914 -79.146301
v -41.765686 29.999914 -79.115295
v -42.824707 29.999914 -79.016296
v -43.873718 29.999914 -78.840271
v -44.906738 29.999914 -78.588257
v -45.918701 29.999914 -78.262268
v -46.904724 29.999914 -77.863281
v -47.859680 29.999914 -77.393250
v -48.776733 29.999912 -76.855286
v -49.595703 29.999912 -76.291260
v -51.275696 29.999912 -74.838257
v -58.368713 29.999912 -66.750305
v -64.360718 29.999910 -57.782288
v -69.130737 29.999908 -48.109253
vt 0.0013 0.1272
vt -0.0000 0.2398
vt -0.0000 0.1463
vt 0.0509 0.2465
vt 0.0050 0.1085
vt -0.1245 0.1181
vt -0.1245 -0.0787
vt -0.1054 -0.0787
vt -0.1054 0.1181
vt -0.1460 0.1181
vt -0.1460 -0.0787
vt -0.1269 -0.0787
vt -0.1269 0.1181
vt -0.7128 0.1181
vt -0.7128 -0.0787
vt -0.1463 -0.0787
vt -0.1463 0.1181
vt -0.2398 0.1181
vt -0.2398 0.2362
vt -0.6335 0.2362
vt -0.6335 0.1181
vt -1.1678 0.1181
vt -1.1678 -0.0787
vt -0.7113 -0.0787
vt -0.7113 0.1181
vt -1.6058 0.1181
vt -1.6058 -0.0787
vt -1.1517 -0.0787
vt -1.1517 0.1181
vt -2.0202 0.1181
vt -2.0202 -0.0787
vt -1.5661 -0.0787
vt -1.5661 0.1181
vt -2.4040 0.1181
vt -2.4040 -0.0787
vt -1.9499 -0.0787
vt -1.9499 0.1181
vt -2.7505 0.1181
vt -2.7505 -0.0787
vt -2.2964 -0.0787
vt -2.2964 0.1181
vt -3.0536 0.1181
vt -3.0536 -0.0787
vt -2.5997 -0.0787
vt -2.5997 0.1181
vt -2.9547 0.1181
vt -2.9547 -0.0787
vt -2.8422 -0.0787
vt -2.8422 0.1181
vt -2.8933 0.1181
vt -2.8933 -0.0787
vt -2.8891 -0.0787
vt -2.8891 0.1181
vt -2.8100 0.1181
vt -2.8100 -0.0787
vt -2.7517 -0.0787
vt -2.7517 0.1181
vt -2.7119 0.1181
vt -2.7119 -0.0787
vt -2.6536 -0.0787
vt -2.6536 0.1181
vt -2.5996 0.1181
vt -2.5996 -0.0787
vt -2.5413 -0.0787
vt -2.5413 0.1181
vt -2.4736 0.1181
vt -2.4736 -0.0787
vt -2.4153 -0.0787
vt -2.4153 0.1181
vt -2.3347 0.1181
vt -2.3347 -0.0787
vt -2.2764 -0.0787
vt -2.2764 0.1181
vt -2.1835 0.1181
vt -2.1835 -0.0787
vt -2.1253 -0.0787
vt -2.1253 0.1181
vt -2.0210 0.1181
vt -2.0210 -0.0787
vt -1.9627 -0.0787
vt -1.9627 0.1181
vt -1.8478 0.1181
vt -1.8478 -0.0787
vt -1.7895 -0.0787
vt -1.7895 0.1181
vt -1.6771 0.1181
vt -1.6771 -0.0787
vt -1.6067 -0.0787
vt -1.6067 0.1181
vt -1.8484 0.1181
vt -1.8484 -0.0787
vt -1.6057 -0.0787
vt -1.6057 0.1181
vt -1.6442 0.1181
vt -1.6442 -0.0787
vt -1.6218 -0.0787
vt -1.6218 0.1181
vt -1.1934 0.1181
vt -1.1934 -0.0787
vt -1.1709 -0.0787
vt -1.1709 0.1181
vt -0.7223 0.1181
vt -0.7223 -0.0787
vt -0.6998 -0.0787
vt -0.6998 0.1181
vt -0.2390 0.1181
vt -0.2390 -0.0787
vt -0.2165 -0.0787
vt -0.2165 0.1181
vt 0.2482 0.1181
vt 0.2482 -0.0787
vt 0.2707 -0.0787
vt 0.2707 0.1181
vt 0.7309 0.1181
vt 0.7309 -0.0787
vt 0.7534 -0.0787
vt 0.7534 0.1181
vt 1.2010 0.1181
vt 1.2010 -0.0787
vt 1.2234 -0.0787
vt 1.2234 0.1181
vt 1.6502 0.1181
vt 1.6502 -0.0787
vt 1.6727 -0.0787
vt 1.6727 0.1181
vt 2.0711 0.1181
vt 2.0711 -0.0787
vt 2.0936 -0.0787
vt 2.0936 0.1181
vt 2.4563 0.1181
vt 2.4563 -0.0787
vt 2.4788 -0.0787
vt 2.4788 0.1181
vt 2.7994 0.1181
vt 2.7994 -0.0787
vt 2.8218 -0.0787
vt 2.8218 0.1181
vt 3.0943 0.1181
vt 3.0943 -0.0787
vt 3.1168 -0.0787
vt 3.1168 0.1181
vt 1.1694 0.0000
vt 1.1694 -0.0787
vt 3.2333 -0.0787
vt 3.2333 0.1181
vt 1.1694 0.1181
vt 0.0997 0.1181
vt 0.0997 -0.0787
vt 0.2187 0.1181
vt 0.2187 -0.0787
vt 0.2316 -0.0787
vt 0.2316 0.1181
vt 0.4661 0.1181
vt 0.4661 -0.0787
vt 0.4790 -0.0787
vt 0.4790 0.1181
vt 0.7055 0.1181
vt 0.7055 -0.0787
vt 0.7184 -0.0787
vt 0.7184 0.1181
vt 0.9326 0.1181
vt 0.9326 -0.0787
vt 0.9455 -0.0787
vt 0.9455 0.1181
vt 1.1438 0.1181
vt 1.1438 -0.0787
vt 1.1567 -0.0787
vt 1.1567 0.1181
vt 1.3352 0.1181
vt 1.3352 -0.0787
vt 1.3481 -0.0787
vt 1.3481 0.1181
vt 1.5038 0.1181
vt 1.5038 -0.0787
vt 1.5166 -0.0787
vt 1.5166 0.1181
vt 1.6465 0.1181
vt 1.6465 -0.0787
vt 1.6593 -0.0787
vt 1.6593 0.1181
vt 1.7609 0.1181
vt 1.7609 -0.0787
vt 1.7738 -0.0787
vt 1.7738 0.1181
vt 1.8451 0.1181
vt 1.8451 -0.0787
vt 1.8580 -0.0787
vt 1.8580 0.1181
vt 1.8977 0.1181
vt 1.8977 -0.0787
vt 1.9106 -0.0787
vt 1.9106 0.1181
vt 1.9177 0.1181
vt 1.9177 -0.0787
vt 1.9306 -0.0787
vt 1.9306 0.1181
vt 0.1463 0.1181
vt 0.1463 -0.0787
vt 1.9218 -0.0787
vt 1.9218 0.1181
vt 0.1269 0.1181
vt 0.1269 -0.0787
vt 0.1460 -0.0787
vt 0.1460 0.1181
vt 0.1054 0.1181
vt 0.1054 -0.0787
vt 0.1246 -0.0787
vt 0.1246 0.1181
vt 0.0820 0.1181
vt 0.0820 -0.0787
vt 0.1011 -0.0787
vt 0.1011 0.1181
vt 0.0570 0.1181
vt 0.0570 -0.0787
vt 0.0761 -0.0787
vt 0.0761 0.1181
vt 0.0308 0.1181
vt 0.0308 -0.0787
vt 0.0500 -0.0787
vt 0.0500 0.1181
vt 0.0040 0.1181
vt 0.0040 -0.0787
vt 0.0231 -0.0787
vt 0.0231 0.1181
vt -0.0231 0.1181
vt -0.0231 -0.0787
vt -0.0040 -0.0787
vt -0.0040 0.1181
vt -0.0499 0.1181
vt -0.0499 -0.0787
vt -0.0308 -0.0787
vt -0.0308 0.1181
vt -0.0761 0.1181
vt -0.0761 -0.0787
vt -0.0569 -0.0787
vt -0.0569 0.1181
vt -0.1011 0.1181
vt -0.1011 -0.0787
vt -0.0820 -0.0787
vt -0.0820 0.1181
vt 0.0111 0.0903
vt 0.0196 0.0732
vt 0.0302 0.0572
vt 0.0429 0.0429
vt 0.0573 0.0302
vt 0.0984 0.2662
vt 0.0732 0.0196
vt 0.0903 0.0111
vt 0.1085 0.0050
vt 0.1392 0.2974
vt 0.1272 0.0013
vt 0.1463 0.0000
vt 0.1705 0.3382
vt 1.9218 0.0001
vt 0.1901 0.3857
vt 0.1969 0.4366
vt 0.3040 1.3933
vt 1.7961 1.3933
vt 1.7971 3.1792
vt 1.8503 3.4042
vt 1.8727 3.4027
vt 1.8948 3.3983
vt 1.9161 3.3911
vt 1.9362 3.3811
vt 1.9347 0.0009
vt 1.9473 0.0034
vt 1.9549 3.3686
vt 1.9595 0.0076
vt 1.9718 3.3538
vt 1.9711 0.0133
vt 1.9818 0.0204
vt 1.9866 3.3369
vt 1.9915 0.0289
vt 1.9991 3.3182
vt 2.0000 0.0386
vt 2.0090 3.2980
vt 2.0071 0.0493
vt 2.0128 0.0609
vt 2.0162 3.2767
vt 2.0170 0.0731
vt 2.0206 3.2547
vt 2.0195 0.0857
vt 2.0204 0.0986
vt 2.0210 1.1683
vt 2.0221 3.2322
vt 1.6098 3.1793
vt 1.6076 3.4043
vt 1.5501 3.1781
vt 1.5373 3.4029
vt 1.5084 3.1742
vt 1.4793 3.3974
vt 1.4671 3.1673
vt 1.4264 3.1574
vt 1.4218 3.3878
vt 1.3866 3.1445
vt 1.3652 3.3740
vt 1.3478 3.1288
vt 1.3102 3.1103
vt 1.3097 3.3561
vt 1.2741 3.0891
vt 1.2557 3.3343
vt 1.2418 3.0669
vt 1.2034 3.3085
vt 1.1757 3.0097
vt 1.1532 3.2790
vt 1.1052 3.2460
vt 1.1019 3.2434
vt 1.0168 3.1698
vt 0.8964 2.6913
vt 0.7175 2.8285
vt 0.6605 2.3382
vt 0.4727 1.9574
vt 0.4653 2.4510
vt 0.3362 1.5553
vt 0.2644 2.0437
vt 0.1901 0.4876
vt 0.1705 0.5351
vt 0.1392 0.5758
vt 0.1184 1.6137
vt 0.0984 0.6071
vt 0.0509 0.6268
vt 0.0299 1.1683
vt -0.0000 0.7128
vt -0.0000 0.6335
vt 0.0313 0.1181
vt 0.0827 0.1181
vt 0.0827 0.2362
vt 0.0313 0.2362
vt -0.0000 0.6335
vt -0.0000 0.2398
vt 0.0509 0.2465
vt 0.0984 0.2662
vt 0.1392 0.2974
vt 0.1705 0.3382
vt 0.1901 0.3857
vt 0.1969 0.4366
vt 0.1901 0.4876
vt 0.1705 0.5351
vt 0.1392 0.5758
vt 0.0984 0.6071
vt 0.0509 0.6268
vt 0.0313 0.1181
vt 0.0827 0.1181
vt 0.0827 0.2362
vt 0.0313 0.2362
vt 0.1414 0.1181
vt 0.1928 0.1181
vt 0.1928 0.2362
vt 0.1414 0.2362
vt 0.2401 0.1181
vt 0.2915 0.1181
vt 0.2915 0.2362
vt 0.2401 0.2362
vt 0.3207 0.1181
vt 0.3721 0.1181
vt 0.3721 0.2362
vt 0.3207 0.2362
vt 0.3777 0.1181
vt 0.4291 0.1181
vt 0.4291 0.2362
vt 0.3777 0.2362
vt 0.4072 0.1181
vt 0.4586 0.1181
vt 0.4586 0.2362
vt 0.4072 0.2362
vt 0.4072 0.1181
vt 0.4586 0.1181
vt 0.4586 0.2362
vt 0.4072 0.2362
vt 0.3777 0.1181
vt 0.4291 0.1181
vt 0.4291 0.2362
vt 0.3777 0.2362
vt 0.3207 0.1181
vt 0.3721 0.1181
vt 0.3721 0.2362
vt 0.3207 0.2362
vt 0.2401 0.1181
vt 0.2915 0.1181
vt 0.2915 0.2362
vt 0.2401 0.2362
vt 0.1414 0.1181
vt 0.1928 0.1181
vt 0.1928 0.2362
vt 0.1414 0.2362
vt 1.4258 0.1181
vt 1.4258 -0.0787
vt 1.5910 -0.0787
vt 1.5910 0.1181
vt -1.7961 0.1181
vt -1.7961 -0.0787
vt -0.3040 -0.0787
vt -0.3040 0.1181
vt -3.1802 0.1181
vt -3.1802 -0.0787
vt -1.3943 -0.0787
vt -1.3943 0.1181
vt 1.6081 0.1181
vt 1.6081 -0.0787
vt 1.7953 -0.0787
vt 1.7953 0.1181
vt 1.6149 0.1181
vt 1.6149 -0.0787
vt 1.6747 -0.0787
vt 1.6747 0.1181
vt 1.7977 0.1181
vt 1.7977 -0.0787
vt 1.8396 -0.0787
vt 1.8396 0.1181
vt 1.9709 0.1181
vt 1.9709 -0.0787
vt 2.0127 -0.0787
vt 2.0127 0.1181
vt 2.1335 0.1181
vt 2.1335 -0.0787
vt 2.1753 -0.0787
vt 2.1753 0.1181
vt 2.2846 0.1181
vt 2.2846 -0.0787
vt 2.3265 -0.0787
vt 2.3265 0.1181
vt 2.4235 0.1181
vt 2.4235 -0.0787
vt 2.4654 -0.0787
vt 2.4654 0.1181
vt 2.5495 0.1181
vt 2.5495 -0.0787
vt 2.5914 -0.0787
vt 2.5914 0.1181
vt 2.6618 0.1181
vt 2.6618 -0.0787
vt 2.7037 -0.0787
vt 2.7037 0.1181
vt 2.7626 0.1181
vt 2.7626 -0.0787
vt 2.8018 -0.0787
vt 2.8018 0.1181
vt 2.8577 0.1181
vt 2.8577 -0.0787
vt 2.9452 -0.0787
vt 2.9452 0.1181
vt 2.6145 0.1181
vt 2.6145 -0.0787
vt 3.0380 -0.0787
vt 3.0380 0.1181
vt 2.3111 0.1181
vt 2.3111 -0.0787
vt 2.7357 -0.0787
vt 2.7357 0.1181
vt 1.9646 0.1181
vt 1.9646 -0.0787
vt 2.3892 -0.0787
vt 2.3892 0.1181
vt 1.5809 0.1181
vt 1.5809 -0.0787
vt 2.0055 -0.0787
vt 2.0055 0.1181
vn 0.0000 1.0000 -0.0000
vn -0.9914 0.0000 0.1305
vn -0.9659 -0.0000 0.2589
vn -0.9979 0.0000 0.0654
vn -1.0000 -0.0000 0.0000
vn -0.9979 0.0000 -0.0654
vn -0.9659 0.0000 -0.2588
vn -0.9808 0.0000 -0.1951
vn -0.9239 0.0000 -0.3827
vn -0.8660 0.0000 -0.5000
vn -0.7933 0.0000 -0.6088
vn -0.7518 0.0000 -0.6594
vn -0.6540 0.0000 -0.7565
vn -0.5967 -0.0000 -0.8024
vn -0.6256 0.0000 -0.7801
vn -0.5369 0.0000 -0.8436
vn -0.4739 0.0000 -0.8806
vn -0.4090 0.0000 -0.9126
vn -0.3414 0.0000 -0.9399
vn -0.2722 0.0000 -0.9622
vn -0.2011 0.0000 -0.9796
vn -0.1294 0.0000 -0.9916
vn -0.0570 0.0000 -0.9984
vn -0.0207 0.0000 -0.9998
vn 0.0005 0.0000 -1.0000
vn 0.1311 0.0000 -0.9914
vn 0.0659 0.0000 -0.9978
vn 0.2596 0.0000 -0.9657
vn 0.3833 0.0000 -0.9236
vn 0.5005 0.0000 -0.8657
vn 0.6093 0.0000 -0.7929
vn 0.7076 0.0000 -0.7067
vn 0.7937 0.0000 -0.6083
vn 0.8665 0.0000 -0.4991
vn 0.9241 0.0000 -0.3822
vn 0.9661 -0.0000 -0.2583
vn 0.9915 0.0000 -0.1299
vn 0.9979 0.0000 -0.0648
vn 1.0000 0.0000 0.0005
vn 1.0000 0.0000 0.0006
vn 0.9914 0.0000 0.1311
vn 0.9978 0.0000 0.0660
vn 0.9658 0.0000 0.2592
vn 0.9238 0.0000 0.3829
vn 0.8659 -0.0000 0.5002
vn 0.7932 -0.0000 0.6089
vn 0.7068 -0.0000 0.7074
vn 0.6087 -0.0000 0.7934
vn 0.4999 -0.0000 0.8661
vn 0.3826 -0.0000 0.9239
vn 0.2587 -0.0000 0.9660
vn 0.1306 -0.0000 0.9914
vn 0.0656 -0.0000 0.9978
vn 0.0000 -0.0000 1.0000
vn -0.1308 -0.0000 0.9914
vn -0.0652 -0.0000 0.9979
vn -0.2585 -0.0000 0.9660
vn -0.3826 -0.0000 0.9239
vn -0.5001 -0.0000 0.8660
vn -0.6088 -0.0000 0.7933
vn -0.7072 -0.0000 0.7070
vn -0.7933 -0.0000 0.6088
vn -0.8660 -0.0000 0.5001
vn -0.9237 -0.0000 0.3831
vn 0.2589 0.0000 -0.9659
vn 0.1305 0.0000 -0.9915
vn 0.1302 -0.0000 0.9915
vn 0.2588 -0.0000 0.9659
vn 0.5001 0.0000 0.8660
vn 0.7071 0.0000 0.7072
vn 0.8661 0.0000 0.4998
vn 0.9659 0.0000 0.2589
vn 1.0000 0.0000 -0.0000
vn 0.9659 0.0000 -0.2589
vn 0.8660 0.0000 -0.5001
vn 0.7071 0.0000 -0.7071
vn 0.5001 0.0000 -0.8660
vn 0.9808 0.0000 0.1952
vn 0.0000 0.0000 -1.0000
vn -1.0000 0.0000 -0.0006
vn -0.0008 -0.0000 1.0000
vn 0.0568 0.0000 0.9984
vn 0.0204 0.0000 0.9998
vn 0.1294 0.0000 0.9916
vn 0.2014 0.0000 0.9795
vn 0.2720 0.0000 0.9623
vn 0.3411 0.0000 0.9400
vn 0.4086 0.0000 0.9127
vn 0.4741 0.0000 0.8805
vn 0.5369 0.0000 0.8436
vn 0.5672 0.0000 0.8236
vn 0.6539 -0.0000 0.7566
vn 0.7934 0.0000 0.6088
vn 0.7518 0.0000 0.6593
vn 0.8660 0.0000 0.5000
vn 0.9239 0.0000 0.3827
usemtl Color_F06
s 1
f 1/1/1 2/2/1 3/3/1
f 2/2/1 1/1/1 4/4/1
f 4/4/1 1/1/1 5/5/1
f 1/6/2 6/7/2 7/8/3 5/9/3
f 3/10/4 8/11/4 6/12/2 1/13/2
f 9/14/5 10/15/5 8/16/5 3/17/5 2/18/5 11/19/5 12/20/5 13/21/5
f 14/22/6 15/23/6 10/24/6 9/25/6
f 16/26/7 17/27/7 15/28/8 14/29/8
f 18/30/9 19/31/9 17/32/7 16/33/7
f 20/34/10 21/35/10 19/36/9 18/37/9
f 22/38/11 23/39/11 21/40/10 20/41/10
f 24/42/12 25/43/12 23/44/11 22/45/11
f 26/46/13 27/47/13 25/48/13 24/49/13
f 28/50/14 29/51/14 27/52/15 26/53/15
f 30/54/16 31/55/16 29/56/14 28/57/14
f 32/58/17 33/59/17 31/60/16 30/61/16
f 34/62/18 35/63/18 33/64/17 32/65/17
f 36/66/19 37/67/19 35/68/18 34/69/18
f 38/70/20 39/71/20 37/72/19 36/73/19
f 40/74/21 41/75/21 39/76/20 38/77/20
f 42/78/22 43/79/22 41/80/21 40/81/21
f 44/82/23 45/83/23 43/84/22 42/85/22
f 46/86/24 47/87/24 45/88/23 44/89/23
f 48/90/25 49/91/25 47/92/25 46/93/25
f 50/94/26 51/95/26 49/96/27 48/97/27
f 52/98/28 53/99/28 51/100/26 50/101/26
f 54/102/29 55/103/29 53/104/28 52/105/28
f 56/106/30 57/107/30 55/108/29 54/109/29
f 58/110/31 59/111/31 57/112/30 56/113/30
f 60/114/32 61/115/32 59/116/31 58/117/31
f 62/118/33 63/119/33 61/120/32 60/121/32
f 64/122/34 65/123/34 63/124/33 62/125/33
f 66/126/35 67/127/35 65/128/34 64/129/34
f 68/130/36 69/131/36 67/132/35 66/133/35
f 70/134/37 71/135/37 69/136/36 68/137/36
f 72/138/38 73/139/38 71/140/37 70/141/37
f 74/142/39 75/143/39 73/144/39 72/145/39 76/146/39
f 77/147/40 78/148/40 75/143/39 74/142/39 76/146/39
f 79/149/41 80/150/41 78/151/42 77/152/42
f 81/153/43 82/154/43 80/155/41 79/156/41
f 83/157/44 84/158/44 82/159/43 81/160/43
f 85/161/45 86/162/45 84/163/44 83/164/44
f 87/165/46 88/166/46 86/167/45 85/168/45
f 89/169/47 90/170/47 88/171/46 87/172/46
f 91/173/48 92/174/48 90/175/47 89/176/47
f 93/177/49 94/178/49 92/179/48 91/180/48
f 95/181/50 96/182/50 94/183/49 93/184/49
f 97/185/51 98/186/51 96/187/50 95/188/50
f 99/189/52 100/190/52 98/191/51 97/192/51
f 101/193/53 102/194/53 100/195/52 99/196/52
f 103/197/54 104/198/54 102/199/54 101/200/54
f 105/201/55 106/202/55 104/203/56 103/204/56
f 107/205/57 108/206/57 106/207/55 105/208/55
f 109/209/58 110/210/58 108/211/57 107/212/57
f 111/213/59 112/214/59 110/215/58 109/216/58
f 113/217/60 114/218/60 112/219/59 111/220/59
f 115/221/61 116/222/61 114/223/60 113/224/60
f 117/225/62 118/226/62 116/227/61 115/228/61
f 119/229/63 120/230/63 118/231/62 117/232/62
f 121/233/64 122/234/64 120/235/63 119/236/63
f 5/237/3 7/238/3 122/239/64 121/240/64
f 4/4/1 5/5/1 121/241/1
f 4/4/1 121/241/1 119/242/1
f 4/4/1 119/242/1 117/243/1
f 4/4/1 117/243/1 115/244/1
f 4/4/1 115/244/1 113/245/1
f 4/4/1 113/245/1 123/246/1
f 123/246/1 113/245/1 111/247/1
f 123/246/1 111/247/1 109/248/1
f 123/246/1 109/248/1 107/249/1
f 123/246/1 107/249/1 124/250/1
f 124/250/1 107/249/1 105/251/1
f 124/250/1 105/251/1 103/252/1
f 124/250/1 103/252/1 125/253/1
f 125/253/1 103/252/1 101/254/1
f 125/253/1 101/254/1 126/255/1
f 126/255/1 101/254/1 127/256/1
f 127/256/1 101/254/1 128/257/1
f 128/257/1 101/254/1 129/258/1
f 129/258/1 101/254/1 130/259/1
f 130/259/1 101/254/1 48/260/1
f 48/260/1 101/254/1 50/261/1
f 50/261/1 101/254/1 52/262/1
f 52/262/1 101/254/1 54/263/1
f 54/263/1 101/254/1 56/264/1
f 56/264/1 101/254/1 99/265/1
f 56/264/1 99/265/1 97/266/1
f 56/264/1 97/266/1 58/267/1
f 58/267/1 97/266/1 95/268/1
f 58/267/1 95/268/1 60/269/1
f 60/269/1 95/268/1 93/270/1
f 60/269/1 93/270/1 91/271/1
f 60/269/1 91/271/1 62/272/1
f 62/272/1 91/271/1 89/273/1
f 62/272/1 89/273/1 64/274/1
f 64/274/1 89/273/1 87/275/1
f 64/274/1 87/275/1 66/276/1
f 66/276/1 87/275/1 85/277/1
f 66/276/1 85/277/1 83/278/1
f 66/276/1 83/278/1 68/279/1
f 68/279/1 83/278/1 81/280/1
f 68/279/1 81/280/1 70/281/1
f 70/281/1 81/280/1 79/282/1
f 70/281/1 79/282/1 77/283/1
f 70/281/1 77/283/1 76/284/1
f 70/281/1 76/284/1 72/285/1
f 48/260/1 131/286/1 130/259/1
f 46/287/1 131/286/1 48/260/1
f 46/287/1 132/288/1 131/286/1
f 44/289/1 132/288/1 46/287/1
f 44/289/1 133/290/1 132/288/1
f 42/291/1 133/290/1 44/289/1
f 42/291/1 134/292/1 133/290/1
f 42/291/1 135/293/1 134/292/1
f 40/294/1 135/293/1 42/291/1
f 40/294/1 136/295/1 135/293/1
f 38/296/1 136/295/1 40/294/1
f 38/296/1 137/297/1 136/295/1
f 38/296/1 138/298/1 137/297/1
f 36/299/1 138/298/1 38/296/1
f 36/299/1 139/300/1 138/298/1
f 34/301/1 139/300/1 36/299/1
f 34/301/1 140/302/1 139/300/1
f 32/303/1 140/302/1 34/301/1
f 32/303/1 141/304/1 140/302/1
f 30/305/1 141/304/1 32/303/1
f 28/306/1 141/304/1 30/305/1
f 26/307/1 141/304/1 28/306/1
f 24/308/1 141/304/1 26/307/1
f 24/308/1 142/309/1 141/304/1
f 22/310/1 142/309/1 24/308/1
f 22/310/1 143/311/1 142/309/1
f 22/310/1 144/312/1 143/311/1
f 20/313/1 144/312/1 22/310/1
f 20/313/1 145/314/1 144/312/1
f 20/313/1 128/257/1 145/314/1
f 128/257/1 20/313/1 18/315/1
f 127/256/1 128/257/1 18/315/1
f 18/315/1 146/316/1 127/256/1
f 18/315/1 147/317/1 146/316/1
f 18/315/1 148/318/1 147/317/1
f 16/319/1 148/318/1 18/315/1
f 16/319/1 149/320/1 148/318/1
f 16/319/1 150/321/1 149/320/1
f 14/322/1 150/321/1 16/319/1
f 9/323/1 150/321/1 14/322/1
f 150/321/1 9/323/1 13/324/1
f 150/325/65 13/326/66 12/327/66 151/328/65
f 12/329/1 11/330/1 152/331/1 153/332/1 154/333/1 155/334/1 156/335/1 157/336/1 158/337/1 159/338/1 160/339/1 161/340/1 151/341/1
f 2/342/67 4/343/68 152/344/68 11/345/67
f 4/346/68 123/347/69 153/348/69 152/349/68
f 123/350/69 124/351/70 154/352/70 153/353/69
f 124/354/70 125/355/71 155/356/71 154/357/70
f 125/358/71 126/359/72 156/360/72 155/361/71
f 126/362/72 127/363/73 157/364/73 156/365/72
f 127/366/73 146/367/74 158/368/74 157/369/73
f 146/370/74 147/371/75 159/372/75 158/373/74
f 147/374/75 148/375/76 160/376/76 159/377/75
f 148/378/76 149/379/77 161/380/77 160/381/76
f 149/382/77 150/383/65 151/384/65 161/385/77
f 128/386/78 162/387/78 163/388/72 145/389/72
f 129/390/79 164/391/79 162/392/79 128/393/79
f 130/394/80 165/395/80 164/396/80 129/397/80
f 131/398/81 166/399/81 165/400/81 130/401/81
f 132/402/82 167/403/82 166/404/83 131/405/83
f 133/406/84 168/407/84 167/408/82 132/409/82
f 134/410/85 169/411/85 168/412/84 133/413/84
f 135/414/86 170/415/86 169/416/85 134/417/85
f 136/418/87 171/419/87 170/420/86 135/421/86
f 137/422/88 172/423/88 171/424/87 136/425/87
f 138/426/89 173/427/89 172/428/88 137/429/88
f 139/430/90 174/431/90 173/432/89 138/433/89
f 140/434/91 175/435/91 174/436/90 139/437/90
f 141/438/92 176/439/92 175/440/92 140/441/92
f 142/442/93 177/443/93 176/444/94 141/445/94
f 143/446/95 178/447/95 177/448/93 142/449/93
f 144/450/96 179/451/96 178/452/95 143/453/95
f 145/454/72 163/455/72 179/456/96 144/457/96
