# Blender v2.77 (sub 0) OBJ File: ''
# www.blender.org
mtllib carro_rodas_frente_2.mtl
o roda_frente_Mesh25_Group25_Model
v -17.890930 13.152115 -0.690000
v -17.198914 13.152110 3.960024
v -17.198914 18.152111 3.960025
v -17.890930 18.152115 -0.689999
v -15.326904 13.152110 8.271975
v -15.326904 18.152109 8.271976
v -12.402954 13.152109 11.953005
v -12.402954 18.152109 11.953006
v -8.625916 13.152108 14.750978
v -8.625916 18.152109 14.750979
v -4.252930 13.152108 16.476015
v -4.252930 18.152109 16.476017
v 0.417053 13.152108 17.010988
v 0.417053 18.152109 17.010990
v 5.067078 13.152108 16.318972
v 5.067078 18.152109 16.318974
v 9.379089 13.152109 14.447023
v 9.379089 18.152109 14.447024
v 13.060059 13.152109 11.523012
v 13.060059 18.152109 11.523013
v -17.355896 13.152116 -5.359983
v -17.355896 18.152115 -5.359982
v 15.555054 18.152117 -10.259030
v 12.630066 18.152117 -13.939023
v 0.114075 18.152115 -0.992978
v -9.150940 18.152121 -16.434017
v -12.831909 18.152117 -13.510007
v -15.630920 18.152117 -9.733029
v 15.858093 18.152109 7.745975
v 17.583069 18.152111 3.373965
v 18.118103 18.152115 -1.296994
v 17.426086 18.152117 -5.945981
v 15.555054 13.152117 -10.259031
v 12.630066 13.152117 -13.939024
v 0.114075 13.152115 -0.992979
v -9.150940 13.152118 -16.434019
v -12.831909 13.152117 -13.510008
v -15.630920 13.152117 -9.733030
v 17.426086 13.152116 -5.945982
v 18.118103 13.152115 -1.296995
v 17.583069 13.152110 3.373965
v 15.858093 13.152110 7.745974
v 21.085083 3.152108 19.283020
v 15.123047 3.152105 24.018982
v 8.137085 3.152105 27.052002
v 0.605103 3.152105 28.172974
v -6.959900 3.152105 27.305969
v -14.043945 3.152105 24.510986
v -20.161926 3.152108 19.977966
v -24.898926 3.152109 14.015992
v -27.930908 3.152110 7.029969
v -29.051941 3.152113 -0.502014
v -28.185913 3.152116 -8.067016
v -25.390930 3.152117 -15.151000
v -20.856934 3.152120 -21.268982
v -14.894897 3.152123 -26.005981
v -7.909912 3.152123 -29.038025
v -0.377930 3.152124 -30.158997
v 7.188049 3.152123 -29.293030
v 14.271057 3.152123 -26.497986
v 20.390076 3.152120 -21.965027
v 25.126099 3.152117 -16.002014
v 28.159058 3.152116 -9.017028
v 29.280090 3.152113 -1.484985
v 28.413086 3.152112 6.080994
v 25.618103 3.152109 13.164002
v 21.085083 13.152108 19.283022
v 15.123047 13.152107 24.018984
v 25.618103 13.152109 13.164003
v 28.413086 13.152110 6.080996
v 29.280090 13.152115 -1.484983
v 28.159058 13.152117 -9.017027
v 25.126099 13.152118 -16.002012
v 20.390076 13.152122 -21.965025
v 14.271057 13.152123 -26.497984
v 7.188049 13.152123 -29.293028
v -0.377930 13.152123 -30.158995
v -7.909912 13.152123 -29.038023
v -14.894897 13.152122 -26.005980
v -20.856934 13.152122 -21.268980
v -25.390930 13.152118 -15.150999
v -28.185913 13.152116 -8.067015
v -29.051941 13.152115 -0.502012
v -27.930908 13.152110 7.029970
v -24.898926 13.152109 14.015993
v -20.161926 13.152108 19.977968
v -14.043945 13.152107 24.510988
v -6.959900 13.152102 27.305971
v 0.605103 13.152102 28.172976
v 8.137085 13.152102 27.052004
v 21.085083 -26.847895 19.283016
v 15.123047 -26.847895 24.018978
v 8.137085 -26.847897 27.051998
v 0.605103 -26.847897 28.172970
v -6.959900 -26.847897 27.305965
v -14.043945 -26.847895 24.510983
v -20.161926 -26.847895 19.977962
v -24.898926 -26.847891 14.015986
v -27.930908 -26.847891 7.029964
v -29.051941 -26.847887 -0.502019
v -28.185913 -26.847885 -8.067021
v -25.390930 -26.847883 -15.151006
v -20.856934 -26.847879 -21.268986
v -14.894897 -26.847879 -26.005985
v -7.909912 -26.847878 -29.038029
v -0.377930 -26.847876 -30.159000
v 7.188049 -26.847876 -29.293034
v 14.271057 -26.847879 -26.497990
v 20.390076 -26.847879 -21.965031
v 25.126099 -26.847883 -16.002018
v 28.159058 -26.847883 -9.017034
v 29.280090 -26.847887 -1.484990
v 28.413086 -26.847891 6.080989
v 25.618103 -26.847891 13.163997
v 21.085083 -16.847895 19.283018
v 15.123047 -16.847895 24.018980
v 25.618103 -16.847891 13.163999
v 28.413086 -16.847891 6.080991
v 29.280090 -16.847887 -1.484988
v 28.159058 -16.847883 -9.017032
v 25.126099 -16.847883 -16.002016
v 20.390076 -16.847879 -21.965029
v 14.271057 -16.847879 -26.497988
v 7.188049 -16.847876 -29.293032
v -0.377930 -16.847876 -30.158998
v -7.909912 -16.847878 -29.038027
v -14.894897 -16.847879 -26.005983
v -20.856934 -16.847879 -21.268984
v -25.390930 -16.847883 -15.151004
v -28.185913 -16.847883 -8.067019
v -29.051941 -16.847887 -0.502017
v -27.930908 -16.847891 7.029965
v -24.898926 -16.847891 14.015988
v -20.161926 -16.847895 19.977964
v -14.043945 -16.847895 24.510984
v -6.959900 -16.847897 27.305967
v 0.605103 -16.847897 28.172972
v 8.137085 -16.847897 27.052000
vt -1.9739 0.3500
vt -1.7392 0.1635
vt -1.4642 0.0441
vt -1.1676 0.0000
vt -0.8698 0.0341
vt -0.5909 0.1442
vt -0.3500 0.3226
vt -0.1635 0.5574
vt -0.0441 0.8324
vt 0.0000 1.1289
vt -0.0341 1.4268
vt -0.1442 1.7056
vt -0.3226 1.9465
vt -0.5574 2.1330
vt -0.8324 2.2524
vt -1.1289 2.2965
vt -1.4268 2.2624
vt -1.7056 2.1524
vt -1.9465 1.9739
vt -2.1330 1.7392
vt -2.2524 1.4642
vt -2.2965 1.1676
vt -2.2624 0.8698
vt -2.1524 0.5909
vt 1.4634 0.0000
vt 1.7632 0.0000
vt 1.7632 0.3937
vt 1.4634 0.3937
vt 1.4563 0.0000
vt 1.7561 0.0000
vt 1.7561 0.3937
vt 1.4563 0.3937
vt 1.3397 0.0000
vt 1.6395 0.0000
vt 1.6395 0.3937
vt 1.3397 0.3937
vt 1.1216 0.0000
vt 1.4214 0.0000
vt 1.4214 0.3937
vt 1.1216 0.3937
vt 0.8168 0.0000
vt 1.1166 0.0000
vt 1.1166 0.3937
vt 0.8168 0.3937
vt 0.4462 0.0000
vt 0.7460 0.0000
vt 0.7460 0.3937
vt 0.4462 0.3937
vt 0.0349 0.0000
vt 0.3347 0.0000
vt 0.3347 0.3937
vt 0.0349 0.3937
vt -0.3890 0.0000
vt -0.0892 0.0000
vt -0.0892 0.3937
vt -0.3890 0.3937
vt -0.7965 0.0000
vt -0.4967 0.0000
vt -0.4967 0.3937
vt -0.7965 0.3937
vt -1.1600 -0.0000
vt -0.8602 0.0000
vt -0.8602 0.3937
vt -1.1600 0.3937
vt -1.4547 0.0000
vt -1.1549 0.0000
vt -1.1549 0.3937
vt -1.4547 0.3937
vt -1.6604 0.0000
vt -1.3606 0.0000
vt -1.3606 0.3937
vt -1.6604 0.3937
vt -1.7632 0.0000
vt -1.4634 0.0000
vt -1.4634 0.3937
vt -1.7632 0.3937
vt -1.7561 0.0000
vt -1.4563 0.0000
vt -1.4563 0.3937
vt -1.7561 0.3937
vt -1.6395 0.0000
vt -1.3397 0.0000
vt -1.3397 0.3937
vt -1.6395 0.3937
vt -1.4214 0.0000
vt -1.1216 0.0000
vt -1.1216 0.3937
vt -1.4214 0.3937
vt -1.1166 0.0000
vt -0.8168 0.0000
vt -0.8168 0.3937
vt -1.1166 0.3937
vt -0.7460 0.0000
vt -0.4462 0.0000
vt -0.4462 0.3937
vt -0.7460 0.3937
vt -0.3347 0.0000
vt -0.0349 0.0000
vt -0.0349 0.3937
vt -0.3347 0.3937
vt 0.0892 0.0000
vt 0.3890 0.0000
vt 0.3890 0.3937
vt 0.0892 0.3937
vt 0.4967 0.0000
vt 0.7965 0.0000
vt 0.7965 0.3937
vt 0.4967 0.3937
vt 0.8602 0.0000
vt 1.1600 -0.0000
vt 1.1600 0.3937
vt 0.8602 0.3937
vt 1.1549 0.0000
vt 1.4547 0.0000
vt 1.4547 0.3937
vt 1.1549 0.3937
vt 1.3606 0.0000
vt 1.6604 0.0000
vt 1.6604 0.3937
vt 1.3606 0.3937
vt 1.5130 0.5404
vt 1.4642 0.0441
vt 1.7392 0.1635
vt 1.3433 0.4667
vt 1.1676 0.0000
vt 1.1602 0.4394
vt 0.9764 0.4605
vt 0.8698 0.0341
vt 0.8042 0.5284
vt 0.6555 0.6386
vt 0.5909 0.1442
vt 0.5404 0.7835
vt 0.4667 0.9533
vt 0.3500 0.3226
vt 0.4394 1.1363
vt 1.6580 0.6555
vt 1.7681 0.8042
vt 1.9739 0.3500
vt 1.8361 0.9764
vt 1.8571 1.1602
vt 1.9465 1.9739
vt 2.1330 1.7392
vt 2.1524 0.5909
vt 2.2524 1.4642
vt 2.2624 0.8698
vt 2.2965 1.1676
vt 1.8299 1.3433
vt 1.7562 1.5130
vt 1.7056 2.1524
vt 1.6410 1.6580
vt 1.4268 2.2624
vt 1.1483 1.1483
vt 1.1289 2.2965
vt 0.8324 2.2524
vt 0.7835 1.7562
vt 0.6386 1.6410
vt 0.5574 2.1330
vt 0.5284 1.4923
vt 0.4605 1.3202
vt 0.3226 1.9465
vt 0.1635 0.5574
vt 0.1442 1.7056
vt 0.0441 0.8324
vt 0.0341 1.4268
vt -0.0000 1.1289
vt -1.9739 0.3500
vt -1.7392 0.1635
vt -1.4642 0.0441
vt -1.1676 0.0000
vt -0.8698 0.0341
vt -0.5909 0.1442
vt -0.3500 0.3226
vt -0.1635 0.5574
vt -0.0441 0.8324
vt 0.0000 1.1289
vt -0.0341 1.4268
vt -0.1442 1.7056
vt -0.3226 1.9465
vt -0.5574 2.1330
vt -0.8324 2.2524
vt -1.1289 2.2965
vt -1.4268 2.2624
vt -1.7056 2.1524
vt -1.9465 1.9739
vt -2.1330 1.7392
vt -2.2524 1.4642
vt -2.2965 1.1676
vt -2.2624 0.8698
vt -2.1524 0.5909
vt 1.4634 0.0000
vt 1.7632 0.0000
vt 1.7632 0.3937
vt 1.4634 0.3937
vt 1.4563 0.0000
vt 1.7561 0.0000
vt 1.7561 0.3937
vt 1.4563 0.3937
vt 1.3397 0.0000
vt 1.6395 0.0000
vt 1.6395 0.3937
vt 1.3397 0.3937
vt 1.1216 0.0000
vt 1.4214 0.0000
vt 1.4214 0.3937
vt 1.1216 0.3937
vt 0.8168 0.0000
vt 1.1166 0.0000
vt 1.1166 0.3937
vt 0.8168 0.3937
vt 0.4462 0.0000
vt 0.7460 0.0000
vt 0.7460 0.3937
vt 0.4462 0.3937
vt 0.0349 0.0000
vt 0.3347 0.0000
vt 0.3347 0.3937
vt 0.0349 0.3937
vt -0.3890 0.0000
vt -0.0892 0.0000
vt -0.0892 0.3937
vt -0.3890 0.3937
vt -0.7965 0.0000
vt -0.4967 0.0000
vt -0.4967 0.3937
vt -0.7965 0.3937
vt -1.1600 -0.0000
vt -0.8602 0.0000
vt -0.8602 0.3937
vt -1.1600 0.3937
vt -1.4547 0.0000
vt -1.1549 0.0000
vt -1.1549 0.3937
vt -1.4547 0.3937
vt -1.6604 0.0000
vt -1.3606 0.0000
vt -1.3606 0.3937
vt -1.6604 0.3937
vt -1.7632 0.0000
vt -1.4634 0.0000
vt -1.4634 0.3937
vt -1.7632 0.3937
vt -1.7561 0.0000
vt -1.4563 0.0000
vt -1.4563 0.3937
vt -1.7561 0.3937
vt -1.6395 0.0000
vt -1.3397 0.0000
vt -1.3397 0.3937
vt -1.6395 0.3937
vt -1.4214 0.0000
vt -1.1216 0.0000
vt -1.1216 0.3937
vt -1.4214 0.3937
vt -1.1166 0.0000
vt -0.8168 0.0000
vt -0.8168 0.3937
vt -1.1166 0.3937
vt -0.7460 0.0000
vt -0.4462 0.0000
vt -0.4462 0.3937
vt -0.7460 0.3937
vt -0.3347 0.0000
vt -0.0349 0.0000
vt -0.0349 0.3937
vt -0.3347 0.3937
vt 0.0892 0.0000
vt 0.3890 0.0000
vt 0.3890 0.3937
vt 0.0892 0.3937
vt 0.4967 0.0000
vt 0.7965 0.0000
vt 0.7965 0.3937
vt 0.4967 0.3937
vt 0.8602 0.0000
vt 1.1600 -0.0000
vt 1.1600 0.3937
vt 0.8602 0.3937
vt 1.1549 0.0000
vt 1.4547 0.0000
vt 1.4547 0.3937
vt 1.1549 0.3937
vt 1.3606 0.0000
vt 1.6604 0.0000
vt 1.6604 0.3937
vt 1.3606 0.3937
vt 1.7392 0.1635
vt 1.9739 0.3500
vt 2.1524 0.5909
vt 2.2624 0.8698
vt 2.2965 1.1676
vt 2.2524 1.4642
vt 2.1330 1.7392
vt 1.9465 1.9739
vt 1.7056 2.1524
vt 1.4268 2.2624
vt 1.1289 2.2965
vt 0.8324 2.2524
vt 0.5574 2.1330
vt 0.3226 1.9465
vt 0.1442 1.7056
vt 0.0341 1.4268
vt -0.0000 1.1289
vt 0.0441 0.8324
vt 0.1635 0.5574
vt 0.3500 0.3226
vt 0.5909 0.1442
vt 0.8698 0.0341
vt 1.1676 0.0000
vt 1.4642 0.0441
vt -1.0592 0.3937
vt -0.8742 0.3937
vt -0.8742 0.5906
vt -1.0592 0.5906
vt -0.6886 0.3937
vt -0.5035 0.3937
vt -0.5035 0.5906
vt -0.6886 0.5906
vt -0.2773 0.3937
vt -0.0923 0.3937
vt -0.0923 0.5906
vt -0.2773 0.5906
vt 0.1465 0.3937
vt 0.3316 0.3937
vt 0.3316 0.5906
vt 0.1465 0.5906
vt 0.5541 0.3937
vt 0.7392 0.3937
vt 0.7392 0.5906
vt 0.5541 0.5906
vt 0.9176 0.3937
vt 1.1027 0.3937
vt 1.1027 0.5906
vt 0.9176 0.5906
vt 1.2123 0.3937
vt 1.3973 0.3937
vt 1.3973 0.5906
vt 1.2123 0.5906
vt 1.4180 0.3937
vt 1.6031 0.3937
vt 1.6031 0.5906
vt 1.4180 0.5906
vt 1.5208 0.3937
vt 1.7059 0.3937
vt 1.7059 0.5906
vt 1.5208 0.5906
vt -1.3640 0.3937
vt -1.1789 0.3937
vt -1.1789 0.5906
vt -1.3640 0.5906
vt 1.7562 1.5130
vt 1.6410 1.6580
vt 1.1483 1.1483
vt 0.7835 1.7562
vt 0.6386 1.6410
vt 0.5284 1.4923
vt 0.4605 1.3202
vt 0.4394 1.1363
vt 0.4667 0.9533
vt 0.5404 0.7835
vt 0.6555 0.6386
vt 0.8042 0.5284
vt 0.9764 0.4605
vt 1.1602 0.4394
vt 1.3433 0.4667
vt 1.5130 0.5404
vt 1.6580 0.6555
vt 1.7681 0.8042
vt 1.8361 0.9764
vt 1.8571 1.1602
vt 1.8299 1.3433
vt 0.0923 0.3937
vt 0.2773 0.3937
vt 0.2773 0.5906
vt 0.0923 0.5906
vt -2.3326 0.3937
vt -1.6237 0.3937
vt -1.6237 0.5906
vt -2.3326 0.5906
vt 0.3938 0.3937
vt 1.1027 0.3937
vt 1.1027 0.5906
vt 0.3938 0.5906
vt -1.7059 0.3937
vt -1.5208 0.3937
vt -1.5208 0.5906
vt -1.7059 0.5906
vt -1.6987 0.3937
vt -1.5137 0.3937
vt -1.5137 0.5906
vt -1.6987 0.5906
vt -1.5821 0.3937
vt -1.3971 0.3937
vt -1.3971 0.5906
vt -1.5821 0.5906
vt 0.5035 0.3937
vt 0.6886 0.3937
vt 0.6886 0.5906
vt 0.5035 0.5906
vt 0.8742 0.3937
vt 1.0592 0.3937
vt 1.0592 0.5906
vt 0.8742 0.5906
vt 1.1789 0.3937
vt 1.3640 0.3937
vt 1.3640 0.5906
vt 1.1789 0.5906
vt 1.3971 0.3937
vt 1.5821 0.3937
vt 1.5821 0.5906
vt 1.3971 0.5906
vt 1.5137 0.3937
vt 1.6987 0.3937
vt 1.6987 0.5906
vt 1.5137 0.5906
vn 0.0000 -1.0000 -0.0000
vn 0.5145 -0.0000 0.8575
vn 0.7189 -0.0000 0.6951
vn 0.8743 0.0000 0.4853
vn 0.9701 0.0000 0.2425
vn 0.9999 0.0000 -0.0168
vn 0.9614 0.0000 -0.2751
vn 0.8575 0.0000 -0.5145
vn 0.6951 0.0000 -0.7189
vn 0.4853 0.0000 -0.8743
vn 0.2425 0.0000 -0.9702
vn -0.0169 0.0000 -0.9999
vn -0.2750 0.0000 -0.9614
vn -0.5145 0.0000 -0.8575
vn -0.7189 0.0000 -0.6951
vn -0.8743 0.0000 -0.4854
vn -0.9702 0.0000 -0.2425
vn -0.9999 0.0000 0.0169
vn -0.9614 0.0000 0.2750
vn -0.8575 0.0000 0.5145
vn -0.6951 -0.0000 0.7189
vn -0.4853 -0.0000 0.8743
vn -0.2425 -0.0000 0.9701
vn 0.0168 -0.0000 0.9999
vn 0.2751 -0.0000 0.9614
vn -0.0000 1.0000 0.0000
vn -0.9999 0.0000 0.0168
vn -0.9614 0.0000 0.2751
vn -0.4853 -0.0000 0.8744
vn -0.2425 -0.0000 0.9702
vn 0.7828 0.0000 -0.6222
vn -0.6220 0.0000 -0.7830
vn -0.7189 0.0000 -0.6952
vn -0.8743 0.0000 -0.4853
vn 0.9615 0.0000 -0.2749
vn 0.9999 0.0000 -0.0169
vn 0.9702 0.0000 0.2425
vn 0.8744 -0.0000 0.4853
usemtl Color_A06
s 1
f 43/1/1 44/2/1 45/3/1 46/4/1 47/5/1 48/6/1 49/7/1 50/8/1 51/9/1 52/10/1 53/11/1 54/12/1 55/13/1 56/14/1 57/15/1 58/16/1 59/17/1 60/18/1 61/19/1 62/20/1 63/21/1 64/22/1 65/23/1 66/24/1
f 44/25/2 43/26/3 67/27/3 68/28/2
f 43/29/3 66/30/4 69/31/4 67/32/3
f 66/33/4 65/34/5 70/35/5 69/36/4
f 65/37/5 64/38/6 71/39/6 70/40/5
f 64/41/6 63/42/7 72/43/7 71/44/6
f 63/45/7 62/46/8 73/47/8 72/48/7
f 62/49/8 61/50/9 74/51/9 73/52/8
f 61/53/9 60/54/10 75/55/10 74/56/9
f 60/57/10 59/58/11 76/59/11 75/60/10
f 59/61/11 58/62/12 77/63/12 76/64/11
f 58/65/12 57/66/13 78/67/13 77/68/12
f 57/69/13 56/70/14 79/71/14 78/72/13
f 56/73/14 55/74/15 80/75/15 79/76/14
f 55/77/15 54/78/16 81/79/16 80/80/15
f 54/81/16 53/82/17 82/83/17 81/84/16
f 53/85/17 52/86/18 83/87/18 82/88/17
f 52/89/18 51/90/19 84/91/19 83/92/18
f 51/93/19 50/94/20 85/95/20 84/96/19
f 50/97/20 49/98/21 86/99/21 85/100/20
f 49/101/21 48/102/22 87/103/22 86/104/21
f 48/105/22 47/106/23 88/107/23 87/108/22
f 47/109/23 46/110/24 89/111/24 88/112/23
f 46/113/24 45/114/25 90/115/25 89/116/24
f 45/117/25 44/118/2 68/119/2 90/120/25
f 17/121/26 90/122/26 68/123/26
f 15/124/26 90/122/26 17/121/26
f 15/124/26 89/125/26 90/122/26
f 13/126/26 89/125/26 15/124/26
f 11/127/26 89/125/26 13/126/26
f 11/127/26 88/128/26 89/125/26
f 9/129/26 88/128/26 11/127/26
f 7/130/26 88/128/26 9/129/26
f 7/130/26 87/131/26 88/128/26
f 5/132/26 87/131/26 7/130/26
f 2/133/26 87/131/26 5/132/26
f 2/133/26 86/134/26 87/131/26
f 86/134/26 2/133/26 1/135/26
f 17/121/26 68/123/26 19/136/26
f 19/136/26 68/123/26 42/137/26
f 42/137/26 68/123/26 67/138/26
f 42/137/26 67/138/26 41/139/26
f 41/139/26 67/138/26 40/140/26
f 40/140/26 67/138/26 74/141/26
f 74/141/26 67/138/26 73/142/26
f 73/142/26 67/138/26 69/143/26
f 73/142/26 69/143/26 72/144/26
f 72/144/26 69/143/26 70/145/26
f 72/144/26 70/145/26 71/146/26
f 74/141/26 39/147/26 40/140/26
f 74/141/26 33/148/26 39/147/26
f 75/149/26 33/148/26 74/141/26
f 75/149/26 34/150/26 33/148/26
f 76/151/26 34/150/26 75/149/26
f 76/151/26 35/152/26 34/150/26
f 77/153/26 35/152/26 76/151/26
f 78/154/26 35/152/26 77/153/26
f 78/154/26 36/155/26 35/152/26
f 78/154/26 37/156/26 36/155/26
f 79/157/26 37/156/26 78/154/26
f 79/157/26 38/158/26 37/156/26
f 79/157/26 21/159/26 38/158/26
f 80/160/26 21/159/26 79/157/26
f 80/160/26 1/135/26 21/159/26
f 80/160/26 86/134/26 1/135/26
f 80/160/26 85/161/26 86/134/26
f 81/162/26 85/161/26 80/160/26
f 81/162/26 84/163/26 85/161/26
f 82/164/26 84/163/26 81/162/26
f 84/163/26 82/164/26 83/165/26
f 91/166/1 92/167/1 93/168/1 94/169/1 95/170/1 96/171/1 97/172/1 98/173/1 99/174/1 100/175/1 101/176/1 102/177/1 103/178/1 104/179/1 105/180/1 106/181/1 107/182/1 108/183/1 109/184/1 110/185/1 111/186/1 112/187/1 113/188/1 114/189/1
f 92/190/2 91/191/3 115/192/3 116/193/2
f 91/194/3 114/195/4 117/196/4 115/197/3
f 114/198/4 113/199/5 118/200/5 117/201/4
f 113/202/5 112/203/6 119/204/6 118/205/5
f 112/206/6 111/207/7 120/208/7 119/209/6
f 111/210/7 110/211/8 121/212/8 120/213/7
f 110/214/8 109/215/9 122/216/9 121/217/8
f 109/218/9 108/219/10 123/220/10 122/221/9
f 108/222/10 107/223/11 124/224/11 123/225/10
f 107/226/11 106/227/12 125/228/12 124/229/11
f 106/230/12 105/231/13 126/232/13 125/233/12
f 105/234/13 104/235/14 127/236/14 126/237/13
f 104/238/14 103/239/15 128/240/15 127/241/14
f 103/242/15 102/243/16 129/244/16 128/245/15
f 102/246/16 101/247/17 130/248/17 129/249/16
f 101/250/17 100/251/18 131/252/18 130/253/17
f 100/254/18 99/255/19 132/256/19 131/257/18
f 99/258/19 98/259/20 133/260/20 132/261/19
f 98/262/20 97/263/21 134/264/21 133/265/20
f 97/266/21 96/267/22 135/268/22 134/269/21
f 96/270/22 95/271/23 136/272/23 135/273/22
f 95/274/23 94/275/24 137/276/24 136/277/23
f 94/278/24 93/279/25 138/280/25 137/281/24
f 93/282/25 92/283/2 116/284/2 138/285/25
f 116/286/26 115/287/26 117/288/26 118/289/26 119/290/26 120/291/26 121/292/26 122/293/26 123/294/26 124/295/26 125/296/26 126/297/26 127/298/26 128/299/26 129/300/26 130/301/26 131/302/26 132/303/26 133/304/26 134/305/26 135/306/26 136/307/26 137/308/26 138/309/26
usemtl Color_D05
f 1/310/27 2/311/28 3/312/28 4/313/27
f 2/314/28 5/315/20 6/316/20 3/317/28
f 5/318/20 7/319/21 8/320/21 6/321/20
f 7/322/21 9/323/29 10/324/29 8/325/21
f 9/326/29 11/327/30 12/328/30 10/329/29
f 11/330/30 13/331/24 14/332/24 12/333/30
f 13/334/24 15/335/25 16/336/25 14/337/24
f 15/338/25 17/339/2 18/340/2 16/341/25
f 17/342/2 19/343/3 20/344/3 18/345/2
f 21/346/17 1/347/27 4/348/27 22/349/17
f 23/350/26 24/351/26 25/352/26 26/353/26 27/354/26 28/355/26 22/356/26 4/357/26 3/358/26 6/359/26 8/360/26 10/361/26 12/362/26 14/363/26 16/364/26 18/365/26 20/366/26 29/367/26 30/368/26 31/369/26 32/370/26
f 33/371/8 34/372/31 24/373/31 23/374/8
f 34/375/15 35/376/15 25/377/15 24/378/15
f 35/379/8 36/380/8 26/381/8 25/382/8
f 36/383/32 37/384/33 27/385/33 26/386/32
f 37/387/33 38/388/34 28/389/34 27/390/33
f 38/391/34 21/392/17 22/393/17 28/394/34
f 39/395/35 33/396/8 23/397/8 32/398/35
f 40/399/36 39/400/35 32/401/35 31/402/36
f 41/403/37 40/404/36 31/405/36 30/406/37
f 42/407/38 41/408/37 30/409/37 29/410/38
f 19/411/3 42/412/38 29/413/38 20/414/3
