# Blender v2.77 (sub 0) OBJ File: 'carro_brinquedo.blend'
# www.blender.org
mtllib carro_circulo1.mtl
o circulo1_Mesh29_Group29_Model
v -0.739685 25.538313 -60.115295
v -0.158691 24.780512 -60.114258
v -0.152710 24.780514 -70.114258
v -0.734680 25.538315 -70.115295
v -9.563721 26.729412 -60.119263
v 0.599304 24.199013 -60.114258
v 1.482300 23.833511 -60.113281
v -9.116699 23.630611 -60.119263
v 2.429321 23.708813 -60.113281
v 12.888306 21.007711 -60.107300
v -7.882690 20.753012 -60.119263
v 11.012268 18.500612 -60.108276
v -5.946716 18.292713 -60.117249
v 8.552307 16.564413 -60.110291
v -3.439697 16.417313 -60.116272
v 5.674316 15.330913 -60.111267
v -0.532715 15.254812 -60.115295
v 2.576294 14.884212 -60.113281
v -0.527710 15.254814 -70.115295
v 2.581299 14.884214 -70.113281
v -3.434692 16.417315 -70.116272
v -5.941711 18.292715 -70.117249
v -7.877686 20.753014 -70.119263
v -9.110718 23.630613 -70.119263
v -9.557678 26.729414 -70.119263
v -9.192688 29.838213 -60.119263
v -9.187683 29.838215 -70.119263
v -1.229736 27.367813 -60.115295
v -1.105713 26.420813 -60.115295
v -1.099731 26.420815 -70.115295
v 0.605286 24.199015 -70.114258
v 1.487305 23.833513 -70.113281
v 2.434265 23.708815 -70.113281
v 3.376282 23.833511 -60.112305
v 3.381287 23.833513 -70.112305
v 14.050293 23.914713 -60.107300
v 12.893311 21.007713 -70.107300
v 14.056274 23.914715 -70.107300
v 11.018311 18.500614 -70.108276
v 8.558289 16.564415 -70.110291
v 5.680298 15.330914 -70.111267
v 4.264282 24.199015 -70.112305
v 4.258301 24.199013 -60.112305
v 14.421265 27.023512 -60.106262
v 14.426270 27.023514 -70.106262
v 5.021301 24.780514 -70.111267
v 5.016296 24.780512 -60.111267
v 5.597290 25.538313 -60.111267
v 5.963318 26.420813 -60.111267
v 6.088318 27.367813 -60.111267
v 13.974304 30.122313 -60.107300
v 13.980286 30.122314 -70.107300
v 6.093262 27.367815 -70.111267
v 5.968262 26.420815 -70.111267
v 5.603271 25.538315 -70.111267
v 5.963318 28.314913 -60.111267
v 5.968262 28.314915 -70.111267
v 5.597290 29.197311 -60.111267
v 5.016296 29.955112 -60.111267
v 4.258301 30.536612 -60.112305
v 12.741272 32.999912 -60.107300
v 12.746277 32.999912 -70.107300
v 4.264282 30.536613 -70.112305
v 5.021301 29.955114 -70.111267
v 5.603271 29.197313 -70.111267
v 3.376282 30.902212 -60.112305
v 3.381287 30.902214 -70.112305
v 2.429321 31.026812 -60.113281
v -8.029724 32.745213 -60.119263
v -6.154724 35.252312 -60.118286
v 10.804321 35.460213 -60.108276
v 10.810303 35.460213 -70.108276
v -6.149719 35.252312 -70.118286
v -8.024719 32.745213 -70.119263
v 2.434265 31.026814 -70.113281
v 1.482300 30.902212 -60.113281
v 1.487305 30.902214 -70.113281
v 0.599304 30.536612 -60.114258
v -0.158691 29.955112 -60.114258
v -0.739685 29.197311 -60.115295
v -1.105713 28.314913 -60.115295
v -1.224731 27.367815 -70.115295
v -1.099731 28.314915 -70.115295
v -0.734680 29.197313 -70.115295
v -0.152710 29.955114 -70.114258
v -3.694702 37.188511 -60.116272
v -3.688721 37.188511 -70.116272
v 8.297302 37.335514 -60.110291
v 8.303284 37.335514 -70.110291
v -0.811707 38.422012 -70.115295
v -0.816711 38.422012 -60.115295
v 5.390320 38.498112 -60.111267
v 5.396301 38.498112 -70.111267
v 2.287292 38.868713 -70.113281
v 2.282288 38.868713 -60.113281
v 0.605286 30.536613 -70.114258
vt 0.0005 0.1213
vt 0.0005 0.0837
vt 0.3942 0.0837
vt 0.3942 0.1213
vt -0.0000 0.4663
vt 0.3703 0.3896
vt 0.3474 0.4195
vt 0.4001 0.3667
vt 0.4349 0.3523
vt 0.0176 0.3443
vt 0.4721 0.3474
vt 0.8839 0.2411
vt 0.0661 0.2311
vt 0.8101 0.1424
vt 0.1424 0.1342
vt 0.7132 0.0661
vt 0.2411 0.0604
vt 0.5999 0.0176
vt 0.3555 0.0146
vt 0.4779 0.0000
vt -0.0005 -0.4746
vt -0.0005 -0.3513
vt -0.3942 -0.3513
vt -0.3942 -0.4746
vt -0.0005 -0.3247
vt -0.0005 -0.2014
vt -0.3942 -0.2014
vt -0.3942 -0.3247
vt -0.0005 -0.1569
vt -0.0005 -0.0336
vt -0.3942 -0.0336
vt -0.3942 -0.1569
vt -0.0005 0.0174
vt -0.0005 0.1407
vt -0.3942 0.1407
vt -0.3942 0.0174
vt -0.0005 0.1863
vt -0.0005 0.3096
vt -0.3942 0.3096
vt -0.3942 0.1863
vt -0.0005 0.3383
vt -0.0005 0.4616
vt -0.3942 0.4616
vt -0.3942 0.3383
vt -0.0005 0.4631
vt -0.0005 0.5863
vt -0.3942 0.5863
vt -0.3942 0.4631
vt 0.3281 0.4915
vt 0.0146 0.5887
vt 0.3330 0.4542
vt 0.0005 0.2922
vt 0.0005 0.2546
vt 0.3942 0.2546
vt 0.3942 0.2922
vt -0.3474 0.4195
vt 0.0000 0.4663
vt -0.3330 0.4542
vt -0.3703 0.3896
vt -0.4001 0.3667
vt -0.4349 0.3523
vt -0.0176 0.3443
vt -0.4721 0.3474
vt 0.0005 -0.3851
vt 0.0005 -0.4227
vt 0.3942 -0.4227
vt 0.3942 -0.3851
vt -0.0005 0.5134
vt -0.0005 0.5511
vt -0.3942 0.5511
vt -0.3942 0.5134
vt 0.9297 0.3555
vt 0.5094 0.3523
vt 0.0005 0.6753
vt 0.0005 0.5521
vt 0.3942 0.5521
vt 0.3942 0.6753
vt 0.0005 0.7225
vt 0.0005 0.5992
vt 0.3942 0.5992
vt 0.3942 0.7225
vt 0.0005 0.7246
vt 0.0005 0.6014
vt 0.3942 0.6014
vt 0.3942 0.7246
vt 0.0005 0.6816
vt 0.0005 0.5583
vt 0.3942 0.5583
vt 0.3942 0.6816
vt 0.0005 0.5963
vt 0.0005 0.4730
vt 0.3942 0.4730
vt 0.3942 0.5963
vt -0.3555 0.0146
vt -0.5999 0.0176
vt -0.4779 0.0000
vt -0.2411 0.0604
vt -0.7132 0.0661
vt -0.1424 0.1342
vt -0.8101 0.1424
vt -0.0661 0.2311
vt -0.8839 0.2411
vt -0.9297 0.3555
vt -0.5094 0.3523
vt -0.5442 0.3667
vt -0.0005 0.6055
vt -0.0005 0.6431
vt -0.3942 0.6431
vt -0.3942 0.6055
vt 0.5442 0.3667
vt 0.9443 0.4779
vt 0.0005 0.5863
vt 0.0005 0.4631
vt 0.3942 0.4631
vt 0.3942 0.5863
vt -0.9443 0.4779
vt -0.5740 0.3896
vt -0.0005 0.6550
vt -0.0005 0.6926
vt -0.3942 0.6926
vt -0.3942 0.6550
vt 0.5740 0.3896
vt 0.5969 0.4195
vt 0.6113 0.4542
vt 0.6162 0.4915
vt 0.9267 0.5999
vt 0.0005 0.4616
vt 0.0005 0.3383
vt 0.3942 0.3383
vt 0.3942 0.4616
vt -0.6162 0.4915
vt -0.9267 0.5999
vt -0.6113 0.4542
vt -0.5969 0.4195
vt -0.0005 0.6585
vt -0.0005 0.6961
vt -0.3942 0.6961
vt -0.3942 0.6585
vt -0.0005 0.6159
vt -0.0005 0.6536
vt -0.3942 0.6536
vt -0.3942 0.6159
vt -0.0005 0.5301
vt -0.0005 0.5677
vt -0.3942 0.5677
vt -0.3942 0.5301
vt -0.0005 0.4068
vt -0.0005 0.4445
vt -0.3942 0.4445
vt -0.3942 0.4068
vt 0.6113 0.5288
vt 0.5969 0.5635
vt 0.5740 0.5933
vt 0.5442 0.6162
vt 0.8781 0.7132
vt 0.0005 0.3096
vt 0.0005 0.1863
vt 0.3942 0.1863
vt 0.3942 0.3096
vt -0.5442 0.6162
vt -0.8781 0.7132
vt -0.5740 0.5933
vt -0.5969 0.5635
vt -0.6113 0.5288
vt -0.0005 0.2546
vt -0.0005 0.2922
vt -0.3942 0.2922
vt -0.3942 0.2546
vt -0.0005 0.0837
vt -0.0005 0.1213
vt -0.3942 0.1213
vt -0.3942 0.0837
vt -0.0005 -0.0942
vt -0.0005 -0.0566
vt -0.3942 -0.0566
vt -0.3942 -0.0942
vt -0.0005 -0.2669
vt -0.0005 -0.2293
vt -0.3942 -0.2293
vt -0.3942 -0.2669
vt 0.5094 0.6306
vt 0.4721 0.6355
vt 0.0604 0.7032
vt 0.1342 0.8019
vt 0.8019 0.8101
vt 0.0005 0.1407
vt 0.0005 0.0174
vt 0.3942 0.0174
vt 0.3942 0.1407
vt -0.1342 0.8019
vt -0.8019 0.8101
vt -0.0604 0.7032
vt -0.4721 0.6355
vt -0.5094 0.6306
vt -0.0005 -0.4227
vt -0.0005 -0.3851
vt -0.3942 -0.3851
vt -0.3942 -0.4227
vt 0.0005 0.5511
vt 0.0005 0.5134
vt 0.3942 0.5134
vt 0.3942 0.5511
vt 0.4349 0.6306
vt 0.4001 0.6162
vt 0.3703 0.5933
vt 0.3474 0.5635
vt 0.3330 0.5288
vt 0.0005 0.5677
vt 0.0005 0.5301
vt 0.3942 0.5301
vt 0.3942 0.5677
vt 0.0005 0.4445
vt 0.0005 0.4068
vt 0.3942 0.4068
vt 0.3942 0.4445
vt -0.3281 0.4915
vt -0.0146 0.5887
vt -0.3330 0.5288
vt -0.3474 0.5635
vt -0.3703 0.5933
vt -0.0005 0.5521
vt -0.0005 0.6753
vt -0.3942 0.6753
vt -0.3942 0.5521
vt -0.0005 0.5992
vt -0.0005 0.7225
vt -0.3942 0.7225
vt -0.3942 0.5992
vt -0.0005 0.6014
vt -0.0005 0.7246
vt -0.3942 0.7246
vt -0.3942 0.6014
vt 0.2311 0.8781
vt 0.7032 0.8839
vt 0.0005 -0.0336
vt 0.0005 -0.1569
vt 0.3942 -0.1569
vt 0.3942 -0.0336
vt -0.2311 0.8781
vt -0.7032 0.8839
vt -0.3443 0.9267
vt -0.0005 0.5583
vt -0.0005 0.6816
vt -0.3942 0.6816
vt -0.3942 0.5583
vt 0.3443 0.9267
vt 0.5887 0.9297
vt 0.0005 -0.2014
vt 0.0005 -0.3247
vt 0.3942 -0.3247
vt 0.3942 -0.2014
vt -0.5887 0.9297
vt -0.4663 0.9443
vt -0.0005 0.4730
vt -0.0005 0.5963
vt -0.3942 0.5963
vt -0.3942 0.4730
vt 0.4663 0.9443
vt 0.0005 -0.3513
vt 0.0005 -0.4746
vt 0.3942 -0.4746
vt 0.3942 -0.3513
vt -0.4001 0.6162
vt -0.4349 0.6306
vt 0.0005 0.6431
vt 0.0005 0.6055
vt 0.3942 0.6055
vt 0.3942 0.6431
vt 0.0005 0.6926
vt 0.0005 0.6550
vt 0.3942 0.6550
vt 0.3942 0.6926
vt 0.0005 0.6961
vt 0.0005 0.6585
vt 0.3942 0.6585
vt 0.3942 0.6961
vt 0.0005 0.6536
vt 0.0005 0.6159
vt 0.3942 0.6159
vt 0.3942 0.6536
vt 0.0005 -0.2293
vt 0.0005 -0.2669
vt 0.3942 -0.2669
vt 0.3942 -0.2293
vt 0.0005 -0.0566
vt 0.0005 -0.0942
vt 0.3942 -0.0942
vt 0.3942 -0.0566
vn 0.8660 0.5000 0.0005
vn 0.7071 0.7072 0.0004
vn 0.7071 0.7071 0.0004
vn -0.0005 0.0000 1.0000
vn -0.0006 0.0001 1.0000
vn -0.0006 0.0000 1.0000
vn -0.0006 -0.0001 1.0000
vn -0.0005 -0.0001 1.0000
vn -0.0005 0.0001 1.0000
vn -0.0005 0.0003 1.0000
vn -0.0005 -0.0003 1.0000
vn -0.0005 -0.0002 1.0000
vn 0.0123 -0.9999 0.0000
vn -0.2469 -0.9690 -0.0001
vn -0.4894 -0.8721 -0.0002
vn -0.4893 -0.8721 -0.0002
vn -0.6984 -0.7157 -0.0003
vn -0.8598 -0.5106 -0.0005
vn -0.9627 -0.2707 -0.0006
vn -0.9999 -0.0123 -0.0006
vn -0.9690 0.2470 -0.0005
vn 0.9660 0.2587 0.0005
vn 0.9659 0.2587 0.0005
vn 0.0005 -0.0002 -1.0000
vn 0.0005 -0.0000 -1.0000
vn 0.0005 0.0001 -1.0000
vn 0.0006 0.0000 -1.0000
vn 0.0006 0.0001 -1.0000
vn 0.2588 0.9659 0.0001
vn -0.0000 1.0000 0.0000
vn -0.2588 0.9659 -0.0001
vn 0.9690 -0.2469 0.0005
vn 0.8721 -0.4894 0.0005
vn 0.8721 -0.4893 0.0005
vn 0.7157 -0.6984 0.0004
vn 0.5106 -0.8598 0.0003
vn 0.2706 -0.9627 0.0002
vn 0.0005 -0.0003 -1.0000
vn 0.0005 0.0002 -1.0000
vn 0.0005 0.0003 -1.0000
vn 0.0005 -0.0001 -1.0000
vn -0.5001 0.8660 -0.0003
vn 0.9999 0.0122 0.0005
vn -0.7072 0.7070 -0.0004
vn -0.0006 0.0002 1.0000
vn 0.9627 0.2706 0.0005
vn 0.0006 -0.0002 -1.0000
vn 0.0006 -0.0001 -1.0000
vn -0.8660 0.5000 -0.0005
vn -0.9660 0.2586 -0.0006
vn -0.9659 0.2590 -0.0005
vn -1.0000 0.0000 -0.0005
vn -0.9660 -0.2586 -0.0006
vn -0.9659 -0.2590 -0.0005
vn -0.0004 -0.0003 1.0000
vn 0.8598 0.5106 0.0005
vn 0.0004 0.0003 -1.0000
vn -0.8660 -0.5000 -0.0005
vn -0.7072 -0.7070 -0.0004
vn -0.4998 -0.8661 -0.0003
vn -0.5001 -0.8660 -0.0003
vn -0.2588 -0.9659 -0.0001
vn 0.6984 0.7157 0.0004
vn -0.0000 -1.0000 -0.0000
vn 0.2588 -0.9659 0.0001
vn 0.9659 -0.2587 0.0005
vn 1.0000 0.0000 0.0005
vn 0.9659 -0.2588 0.0005
vn 0.0006 0.0002 -1.0000
vn -0.8721 0.4893 -0.0004
vn -0.8721 0.4894 -0.0004
vn -0.7157 0.6984 -0.0004
vn -0.5106 0.8598 -0.0003
vn -0.0006 -0.0002 1.0000
vn 0.4893 0.8721 0.0003
vn -0.2706 0.9627 -0.0001
vn 0.2470 0.9690 0.0001
vn -0.0122 0.9999 -0.0000
vn -0.0123 0.9999 -0.0000
vn 0.5000 -0.8660 0.0003
vn 0.7071 -0.7072 0.0004
vn 0.7071 -0.7071 0.0004
vn 0.8660 -0.5000 0.0005
vn 0.4999 0.8661 0.0003
usemtl Color_A06
s 1
f 1/1/1 2/2/2 3/3/3 4/4/1
f 5/5/4 2/6/5 1/7/4
f 5/5/4 6/8/6 2/6/5
f 5/5/4 7/9/4 6/8/6
f 8/10/7 7/9/4 5/5/4
f 7/9/4 8/10/7 9/11/8
f 8/10/7 10/12/9 9/11/8
f 11/13/7 10/12/9 8/10/7
f 11/13/7 12/14/6 10/12/9
f 13/15/10 12/14/6 11/13/7
f 13/15/10 14/16/11 12/14/6
f 15/17/12 14/16/11 13/15/10
f 15/17/12 16/18/10 14/16/11
f 17/19/7 16/18/10 15/17/12
f 16/18/10 17/19/7 18/20/6
f 18/21/13 17/22/14 19/23/14 20/24/13
f 17/25/14 15/26/15 21/27/16 19/28/14
f 15/29/15 13/30/17 22/31/17 21/32/16
f 13/33/17 11/34/18 23/35/18 22/36/17
f 11/37/18 8/38/19 24/39/19 23/40/18
f 8/41/19 5/42/20 25/43/20 24/44/19
f 5/45/20 26/46/21 27/47/21 25/48/20
f 5/5/4 28/49/4 26/50/9
f 5/5/4 29/51/8 28/49/4
f 5/5/4 1/7/4 29/51/8
f 29/52/22 1/53/1 4/54/1 30/55/23
f 4/56/24 25/57/25 30/58/26
f 3/59/27 25/57/25 4/56/24
f 31/60/25 25/57/25 3/59/27
f 32/61/25 25/57/25 31/60/25
f 32/61/25 24/62/28 25/57/25
f 24/62/28 32/61/25 33/63/26
f 7/64/29 9/65/30 33/66/30 32/67/29
f 9/68/30 34/69/31 35/70/31 33/71/30
f 9/11/8 36/72/8 34/73/8
f 9/11/8 10/12/9 36/72/8
f 36/74/32 10/75/33 37/76/34 38/77/32
f 10/78/33 12/79/35 39/80/35 37/81/34
f 12/82/35 14/83/36 40/84/36 39/85/35
f 14/86/36 16/87/37 41/88/37 40/89/36
f 16/90/37 18/91/13 20/92/13 41/93/37
f 19/94/25 41/95/38 20/96/27
f 41/95/38 19/94/25 21/97/39
f 41/95/38 21/97/39 40/98/40
f 40/98/40 21/97/39 22/99/38
f 40/98/40 22/99/38 39/100/27
f 39/100/27 22/99/38 23/101/28
f 39/100/27 23/101/28 37/102/41
f 37/102/41 23/101/28 24/62/28
f 37/102/41 24/62/28 33/63/26
f 37/102/41 33/63/26 38/103/26
f 38/103/26 33/63/26 35/104/25
f 38/103/26 35/104/25 42/105/41
f 34/106/31 43/107/42 42/108/42 35/109/31
f 34/73/8 36/72/8 43/110/9
f 43/110/9 36/72/8 44/111/6
f 44/112/43 36/113/32 38/114/32 45/115/43
f 38/103/26 42/105/41 45/116/27
f 45/116/27 42/105/41 46/117/25
f 43/118/42 47/119/44 46/120/44 42/121/42
f 43/110/9 44/111/6 47/122/4
f 47/122/4 44/111/6 48/123/5
f 48/123/5 44/111/6 49/124/45
f 49/124/45 44/111/6 50/125/6
f 50/125/6 44/111/6 51/126/4
f 51/127/46 44/128/43 45/129/43 52/130/46
f 45/116/27 53/131/27 52/132/25
f 45/116/27 54/133/47 53/131/27
f 45/116/27 55/134/48 54/133/47
f 45/116/27 46/117/25 55/134/48
f 47/135/44 48/136/49 55/137/49 46/138/44
f 48/139/49 49/140/50 54/141/51 55/142/49
f 49/143/50 50/144/52 53/145/52 54/146/51
f 50/147/52 56/148/53 57/149/54 53/150/52
f 50/125/6 51/126/4 56/151/8
f 56/151/8 51/126/4 58/152/55
f 58/152/55 51/126/4 59/153/4
f 59/153/4 51/126/4 60/154/8
f 60/154/8 51/126/4 61/155/12
f 61/156/56 51/157/46 52/158/46 62/159/56
f 52/132/25 63/160/48 62/161/39
f 52/132/25 64/162/26 63/160/48
f 52/132/25 65/163/57 64/162/26
f 52/132/25 57/164/26 65/163/57
f 52/132/25 53/131/27 57/164/26
f 56/165/53 58/166/58 65/167/58 57/168/54
f 58/169/58 59/170/59 64/171/59 65/172/58
f 59/173/59 60/174/60 63/175/61 64/176/59
f 60/177/60 66/178/62 67/179/62 63/180/61
f 60/154/8 61/155/12 66/181/5
f 66/181/5 61/155/12 68/182/8
f 68/182/8 61/155/12 69/183/45
f 69/183/45 61/155/12 70/184/6
f 70/184/6 61/155/12 71/185/6
f 71/186/63 61/187/56 62/188/56 72/189/63
f 62/161/39 73/190/27 72/191/27
f 62/161/39 74/192/47 73/190/27
f 62/161/39 75/193/26 74/192/47
f 62/161/39 67/194/41 75/193/26
f 62/161/39 63/160/48 67/194/41
f 66/195/62 68/196/64 75/197/64 67/198/62
f 68/199/64 76/200/65 77/201/65 75/202/64
f 69/183/45 76/203/6 68/182/8
f 69/183/45 78/204/9 76/203/6
f 69/183/45 79/205/9 78/204/9
f 26/50/9 79/205/9 69/183/45
f 26/50/9 80/206/12 79/205/9
f 26/50/9 81/207/9 80/206/12
f 26/50/9 28/49/4 81/207/9
f 81/208/66 28/209/67 82/210/67 83/211/68
f 28/212/67 29/213/22 30/214/23 82/215/67
f 30/58/26 25/57/25 82/216/25
f 82/216/25 25/57/25 27/217/41
f 82/216/25 27/217/41 83/218/69
f 83/218/69 27/217/41 84/219/39
f 84/219/39 27/217/41 85/220/41
f 85/220/41 27/217/41 74/192/47
f 26/221/21 69/222/70 74/223/71 27/224/21
f 69/225/70 70/226/72 73/227/72 74/228/71
f 70/229/72 86/230/73 87/231/73 73/232/72
f 70/184/6 71/185/6 86/233/74
f 86/233/74 71/185/6 88/234/10
f 88/235/75 71/236/63 72/237/63 89/238/75
f 72/191/27 87/239/69 89/240/38
f 72/191/27 73/190/27 87/239/69
f 89/240/38 87/239/69 90/241/38
f 86/242/73 91/243/76 90/244/76 87/245/73
f 86/233/74 88/234/10 91/246/10
f 91/246/10 88/234/10 92/247/8
f 92/248/77 88/249/75 89/250/75 93/251/77
f 89/240/38 90/241/38 93/252/69
f 93/252/69 90/241/38 94/253/27
f 91/254/76 95/255/78 94/256/79 90/257/76
f 91/246/10 92/247/8 95/258/6
f 95/259/78 92/260/77 93/261/77 94/262/79
f 85/220/41 74/192/47 96/263/27
f 96/263/27 74/192/47 77/264/27
f 77/264/27 74/192/47 75/193/26
f 76/265/65 78/266/80 96/267/80 77/268/65
f 78/269/80 79/270/81 85/271/82 96/272/80
f 79/273/81 80/274/83 84/275/83 85/276/82
f 80/277/83 81/278/66 83/279/68 84/280/83
f 6/281/84 7/282/29 32/283/29 31/284/84
f 2/285/2 6/286/84 31/287/84 3/288/3
