# Blender v2.77 (sub 0) OBJ File: 'carro_brinquedo.blend'
# www.blender.org
mtllib carro_janela.mtl
o janela_Mesh32_Group32_Model
v 73.992310 19.999907 -23.692261
v 74.095276 19.999907 -23.838257
v 74.095276 24.825306 -23.838257
v 73.992310 24.825306 -23.692261
v 74.156311 19.999907 -23.959290
v 74.156311 24.825306 -23.959290
v 74.198303 19.999907 -25.462280
v 74.198303 24.825306 -25.462280
v 74.196289 19.999916 -85.922272
v 74.196289 24.825315 -85.922272
v 74.176270 19.999916 -85.981262
v 74.176270 24.825315 -85.981262
v 74.095276 19.999916 -86.141266
v 74.095276 24.825315 -86.141266
v 73.992310 19.999916 -86.288269
v 73.992310 24.825315 -86.288269
v 73.868286 19.999916 -86.418274
v 73.868286 24.825315 -86.418274
v 73.726318 19.999916 -86.528290
v 73.726318 24.825315 -86.528290
v 73.570312 19.999916 -86.617279
v 73.570312 24.825315 -86.617279
v 73.403320 19.999916 -86.681274
v 73.403320 24.825315 -86.681274
v 73.228271 19.999916 -86.720276
v 73.228271 24.825315 -86.720276
v 72.927307 19.999916 -86.743286
v 72.927307 24.825315 -86.743286
v 37.991272 19.999916 -86.762268
v 37.991272 24.825315 -86.762268
v 37.703308 19.999916 -86.743286
v 37.703308 24.825315 -86.743286
v 37.421265 19.999916 -86.687286
v 37.421265 24.825315 -86.687286
v 37.147278 19.999916 -86.594269
v 37.147278 24.825315 -86.594269
v 36.889282 19.999916 -86.467285
v 36.889282 24.825315 -86.467285
v 36.649292 19.999916 -86.307281
v 36.649292 24.825315 -86.307281
v 36.432312 19.999916 -86.117279
v 36.432312 24.825315 -86.117279
v 36.242310 19.999916 -85.900269
v 36.242310 24.825315 -85.900269
v 36.082275 19.999916 -85.660278
v 36.082275 24.825315 -85.660278
v 35.954285 19.999916 -85.402283
v 35.954285 24.825315 -85.402283
v 35.861267 19.999916 -85.129272
v 35.861267 24.825315 -85.129272
v 35.805298 19.999916 -84.846252
v 35.805298 24.825315 -84.846252
v 35.786316 19.999916 -84.558289
v 35.786316 24.825315 -84.558289
v 35.754272 19.999907 -26.015259
v 35.754272 24.825306 -26.015259
v 35.779297 19.999907 -25.632263
v 35.779297 24.825306 -25.632263
v 35.812317 19.999907 -25.130249
v 35.812317 24.825306 -25.130249
v 35.868286 19.999907 -24.848267
v 35.868286 24.825306 -24.848267
v 35.961304 19.999907 -24.575256
v 35.961304 24.825306 -24.575256
v 36.088318 19.999907 -24.318298
v 36.088318 24.825306 -24.318298
v 36.247314 19.999907 -24.079285
v 36.247314 24.825306 -24.079285
v 36.437317 19.999907 -23.863281
v 36.437317 24.825306 -23.863281
v 36.653320 19.999907 -23.673279
v 36.653320 24.825306 -23.673279
v 36.892273 19.999907 -23.514282
v 36.892273 24.825306 -23.514282
v 37.150269 19.999907 -23.386292
v 37.150269 24.825306 -23.386292
v 37.422302 19.999907 -23.294250
v 37.422302 24.825306 -23.294250
v 37.600281 19.999907 -23.259277
v 37.600281 24.825306 -23.259277
v 72.929321 19.999907 -23.237305
v 72.929321 24.825306 -23.237305
v 72.929321 34.825306 -23.237305
v 37.600281 34.825306 -23.259277
v 73.228271 19.999907 -23.259277
v 73.228271 24.825306 -23.259277
v 73.403320 19.999907 -23.299255
v 73.403320 24.825306 -23.299255
v 73.570312 19.999907 -23.363281
v 73.570312 24.825306 -23.363281
v 73.726318 19.999907 -23.452271
v 73.726318 24.825306 -23.452271
v 73.868286 19.999907 -23.562256
v 73.868286 24.825306 -23.562256
v 37.600281 24.825306 -25.259277
v 72.929321 24.825306 -25.259277
v 37.600281 34.825310 -25.259277
v 72.929321 34.825310 -25.259277
vt 0.8833 -0.0719
vt 0.8903 -0.0719
vt 0.8903 0.1181
vt 0.8833 0.1181
vt 0.7022 -0.0719
vt 0.7076 -0.0719
vt 0.7076 0.1181
vt 0.7022 0.1181
vt 0.0701 -0.0719
vt 0.1293 -0.0719
vt 0.1293 0.1181
vt 0.0701 0.1181
vt 0.0875 -0.0719
vt 2.4679 -0.0719
vt 2.4679 0.1181
vt 0.0875 0.1181
vt 1.8639 -0.0719
vt 1.8664 -0.0719
vt 1.8664 0.1181
vt 1.8639 0.1181
vt 1.5219 -0.0719
vt 1.5290 -0.0719
vt 1.5290 0.1181
vt 1.5219 0.1181
vt 1.1516 -0.0719
vt 1.1587 -0.0719
vt 1.1587 0.1181
vt 1.1516 0.1181
vt 0.7565 -0.0719
vt 0.7635 -0.0719
vt 0.7635 0.1181
vt 0.7565 0.1181
vt 0.3449 -0.0719
vt 0.3520 -0.0719
vt 0.3520 0.1181
vt 0.3449 0.1181
vt -0.0742 -0.0719
vt -0.0671 -0.0719
vt -0.0671 0.1181
vt -0.0742 0.1181
vt -0.4917 -0.0719
vt -0.4846 -0.0719
vt -0.4846 0.1181
vt -0.4917 0.1181
vt -0.8987 -0.0719
vt -0.8917 -0.0719
vt -0.8917 0.1181
vt -0.8987 0.1181
vt -1.2865 -0.0719
vt -1.2746 -0.0719
vt -1.2746 0.1181
vt -1.2865 0.1181
vt -1.4621 -0.0719
vt -0.0867 -0.0719
vt -0.0867 0.1181
vt -1.4621 0.1181
vt -0.2501 -0.0719
vt -0.2388 -0.0719
vt -0.2388 0.1181
vt -0.2501 0.1181
vt -0.5619 -0.0719
vt -0.5505 -0.0719
vt -0.5505 0.1181
vt -0.5619 0.1181
vt -0.8641 -0.0719
vt -0.8527 -0.0719
vt -0.8527 0.1181
vt -0.8641 0.1181
vt -1.1516 -0.0719
vt -1.1402 -0.0719
vt -1.1402 0.1181
vt -1.1516 0.1181
vt -1.4195 -0.0719
vt -1.4081 -0.0719
vt -1.4081 0.1181
vt -1.4195 0.1181
vt -1.6631 -0.0719
vt -1.6518 -0.0719
vt -1.6518 0.1181
vt -1.6631 0.1181
vt -1.8784 -0.0719
vt -1.8671 -0.0719
vt -1.8671 0.1181
vt -1.8784 0.1181
vt -2.0617 -0.0719
vt -2.0503 -0.0719
vt -2.0503 0.1181
vt -2.0617 0.1181
vt -2.2097 -0.0719
vt -2.1983 -0.0719
vt -2.1983 0.1181
vt -2.2097 0.1181
vt -2.3200 -0.0719
vt -2.3086 -0.0719
vt -2.3086 0.1181
vt -2.3200 0.1181
vt -2.3906 -0.0719
vt -2.3793 -0.0719
vt -2.3793 0.1181
vt -2.3906 0.1181
vt -2.4205 -0.0719
vt -2.4091 -0.0719
vt -2.4091 0.1181
vt -2.4205 0.1181
vt -2.4142 -0.0719
vt -0.1093 -0.0719
vt -0.1093 0.1181
vt -2.4142 0.1181
vt -0.1091 -0.0719
vt -0.0940 -0.0719
vt -0.0940 0.1181
vt -0.1091 0.1181
vt -0.0742 -0.0719
vt -0.0742 0.1181
vt -0.0726 -0.0719
vt -0.0613 -0.0719
vt -0.0613 0.1181
vt -0.0726 0.1181
vt -0.0586 -0.0719
vt -0.0473 -0.0719
vt -0.0473 0.1181
vt -0.0586 0.1181
vt -0.0436 -0.0719
vt -0.0323 -0.0719
vt -0.0323 0.1181
vt -0.0436 0.1181
vt -0.0281 -0.0719
vt -0.0167 -0.0719
vt -0.0167 0.1181
vt -0.0281 0.1181
vt -0.0121 -0.0719
vt -0.0008 -0.0719
vt -0.0008 0.1181
vt -0.0121 0.1181
vt 0.0040 -0.0719
vt 0.0153 -0.0719
vt 0.0153 0.1181
vt 0.0040 0.1181
vt 0.0199 -0.0719
vt 0.0312 -0.0719
vt 0.0312 0.1181
vt 0.0199 0.1181
vt 0.0354 -0.0719
vt 0.0467 -0.0719
vt 0.0467 0.1181
vt 0.0354 0.1181
vt 0.0502 -0.0719
vt 0.0615 -0.0719
vt 0.0615 0.1181
vt 0.0502 0.1181
vt 0.0640 -0.0719
vt 0.0711 -0.0719
vt 0.0711 0.1181
vt 0.0640 0.1181
vt 0.0727 -0.0719
vt 1.4636 -0.0719
vt 1.4636 0.1181
vt 1.4636 0.5118
vt 0.0727 0.5118
vt 0.0727 0.1181
vt 1.4596 -0.0719
vt 1.4714 -0.0719
vt 1.4714 0.1181
vt 1.4596 0.1181
vt 1.4397 -0.0719
vt 1.4467 -0.0719
vt 1.4467 0.1181
vt 1.4397 0.1181
vt 1.3839 -0.0719
vt 1.3910 -0.0719
vt 1.3910 0.1181
vt 1.3839 0.1181
vt 1.2982 -0.0719
vt 1.3053 -0.0719
vt 1.3053 0.1181
vt 1.2982 0.1181
vt 1.1845 -0.0719
vt 1.1916 -0.0719
vt 1.1916 0.1181
vt 1.1845 0.1181
vt 1.0452 -0.0719
vt 1.0523 -0.0719
vt 1.0523 0.1181
vt 1.0452 0.1181
vt 0.0657 0.0022
vt 0.0727 0.0009
vt 0.0727 0.0796
vt 1.4636 0.0796
vt 1.4636 0.0000
vt 1.4753 0.0009
vt 1.4822 0.0024
vt 1.4888 0.0050
vt 1.4950 0.0084
vt 1.5006 0.0128
vt 1.5054 0.0179
vt 1.5095 0.0237
vt 1.5119 0.0284
vt 1.5135 0.0876
vt 1.5135 2.4679
vt 1.5127 2.4702
vt 1.5095 2.4765
vt 1.5054 2.4823
vt 1.5006 2.4874
vt 1.4950 2.4918
vt 1.4888 2.4952
vt 1.4822 2.4978
vt 1.4753 2.4993
vt 1.4635 2.5002
vt 0.0881 2.5010
vt 0.0767 2.5002
vt 0.0656 2.4980
vt 0.0549 2.4944
vt 0.0447 2.4894
vt 0.0352 2.4831
vt 0.0267 2.4756
vt 0.0192 2.4670
vt 0.0129 2.4576
vt 0.0079 2.4474
vt 0.0042 2.4367
vt 0.0020 2.4255
vt 0.0013 2.4142
vt -0.0000 0.1093
vt 0.0010 0.0943
vt 0.0023 0.0745
vt 0.0045 0.0634
vt 0.0081 0.0527
vt 0.0131 0.0425
vt 0.0194 0.0331
vt 0.0269 0.0246
vt 0.0354 0.0172
vt 0.0448 0.0109
vt 0.0550 0.0059
vt -0.0796 0.1181
vt -0.0009 0.1181
vt -0.0009 0.5118
vt -0.0796 0.5118
vt 0.0727 0.0009
vt 1.4636 -0.0000
vt 1.4636 0.0796
vt 0.0727 0.0796
vt 0.0000 0.1181
vt 0.0796 0.1181
vt 0.0796 0.5118
vt 0.0000 0.5118
vt -1.4636 0.1181
vt -0.0727 0.1181
vt -0.0727 0.5118
vt -1.4636 0.5118
vn 0.7725 0.0000 0.6350
vn 0.8569 -0.0000 0.5156
vn 0.8925 -0.0000 0.4511
vn 0.9996 0.0000 0.0276
vn 1.0000 0.0000 -0.0000
vn 0.9489 0.0000 -0.3157
vn 0.9231 0.0000 -0.3845
vn 0.8569 0.0000 -0.5155
vn 0.7722 0.0000 -0.6354
vn 0.6708 -0.0000 -0.7416
vn 0.5550 0.0000 -0.8319
vn 0.4272 0.0000 -0.9042
vn 0.2901 -0.0000 -0.9570
vn 0.1469 0.0000 -0.9892
vn 0.0740 0.0000 -0.9973
vn 0.0005 0.0000 -1.0000
vn -0.0649 0.0000 -0.9979
vn -0.1302 -0.0000 -0.9915
vn -0.2587 0.0000 -0.9660
vn -0.3823 0.0000 -0.9240
vn -0.4997 0.0000 -0.8662
vn -0.6085 0.0000 -0.7936
vn -0.7071 0.0000 -0.7071
vn -0.7932 -0.0000 -0.6089
vn -0.8658 0.0000 -0.5003
vn -0.9238 0.0000 -0.3828
vn -0.9659 0.0000 -0.2588
vn -0.9914 -0.0000 -0.1306
vn -0.9978 0.0000 -0.0658
vn -1.0000 0.0000 -0.0005
vn -0.9979 0.0000 0.0652
vn -0.9979 0.0000 0.0654
vn -0.9915 0.0000 0.1304
vn -0.9658 0.0000 0.2592
vn -0.9238 -0.0000 0.3829
vn -0.8660 0.0000 0.5001
vn -0.7933 0.0000 0.6088
vn -0.7071 0.0000 0.7071
vn -0.6086 0.0000 0.7935
vn -0.4999 0.0000 0.8661
vn -0.3825 0.0000 0.9240
vn -0.2584 -0.0000 0.9660
vn -0.1947 -0.0000 0.9809
vn -0.0006 0.0000 1.0000
vn 0.0736 0.0000 0.9973
vn 0.1469 -0.0000 0.9892
vn 0.2904 -0.0000 0.9569
vn 0.4273 -0.0000 0.9041
vn 0.5549 0.0000 0.8319
vn 0.6708 0.0000 0.7417
vn 0.0000 1.0000 0.0000
vn -1.0000 0.0000 0.0000
vn 0.0000 0.0000 -1.0000
usemtl Color_C05
s 1
f 1/1/1 2/2/2 3/3/2 4/4/1
f 2/5/2 5/6/3 6/7/3 3/8/2
f 5/9/4 7/10/4 8/11/4 6/12/4
f 7/13/5 9/14/5 10/15/5 8/16/5
f 9/17/6 11/18/7 12/19/7 10/20/6
f 11/21/7 13/22/8 14/23/8 12/24/7
f 13/25/8 15/26/9 16/27/9 14/28/8
f 15/29/9 17/30/10 18/31/10 16/32/9
f 17/33/10 19/34/11 20/35/11 18/36/10
f 19/37/11 21/38/12 22/39/12 20/40/11
f 21/41/12 23/42/13 24/43/13 22/44/12
f 23/45/13 25/46/14 26/47/14 24/48/13
f 25/49/14 27/50/15 28/51/15 26/52/14
f 27/53/16 29/54/16 30/55/16 28/56/16
f 29/57/17 31/58/18 32/59/18 30/60/17
f 31/61/18 33/62/19 34/63/19 32/64/18
f 33/65/19 35/66/20 36/67/20 34/68/19
f 35/69/20 37/70/21 38/71/21 36/72/20
f 37/73/21 39/74/22 40/75/22 38/76/21
f 39/77/22 41/78/23 42/79/23 40/80/22
f 41/81/23 43/82/24 44/83/24 42/84/23
f 43/85/24 45/86/25 46/87/25 44/88/24
f 45/89/25 47/90/26 48/91/26 46/92/25
f 47/93/26 49/94/27 50/95/27 48/96/26
f 49/97/27 51/98/28 52/99/28 50/100/27
f 51/101/28 53/102/29 54/103/29 52/104/28
f 53/105/30 55/106/30 56/107/30 54/108/30
f 55/109/31 57/110/32 58/111/32 56/112/31
f 57/110/32 59/113/33 60/114/33 58/111/32
f 59/115/33 61/116/34 62/117/34 60/118/33
f 61/119/34 63/120/35 64/121/35 62/122/34
f 63/123/35 65/124/36 66/125/36 64/126/35
f 65/127/36 67/128/37 68/129/37 66/130/36
f 67/131/37 69/132/38 70/133/38 68/134/37
f 69/135/38 71/136/39 72/137/39 70/138/38
f 71/139/39 73/140/40 74/141/40 72/142/39
f 73/143/40 75/144/41 76/145/41 74/146/40
f 75/147/41 77/148/42 78/149/42 76/150/41
f 77/151/42 79/152/43 80/153/43 78/154/42
f 79/155/44 81/156/44 82/157/44 83/158/44 84/159/44 80/160/44
f 81/161/45 85/162/46 86/163/46 82/164/45
f 85/165/46 87/166/47 88/167/47 86/168/46
f 87/169/47 89/170/48 90/171/48 88/172/47
f 89/173/48 91/174/49 92/175/49 90/176/48
f 91/177/49 93/178/50 94/179/50 92/180/49
f 93/181/50 1/182/1 4/183/1 94/184/50
f 78/185/51 80/186/51 95/187/51 96/188/51 82/189/51 86/190/51 88/191/51 90/192/51 92/193/51 94/194/51 4/195/51 3/196/51 6/197/51 8/198/51 10/199/51 12/200/51 14/201/51 16/202/51 18/203/51 20/204/51 22/205/51 24/206/51 26/207/51 28/208/51 30/209/51 32/210/51 34/211/51 36/212/51 38/213/51 40/214/51 42/215/51 44/216/51 46/217/51 48/218/51 50/219/51 52/220/51 54/221/51 56/222/51 58/223/51 60/224/51 62/225/51 64/226/51 66/227/51 68/228/51 70/229/51 72/230/51 74/231/51 76/232/51
f 95/233/52 80/234/52 84/235/52 97/236/52
f 84/237/51 83/238/51 98/239/51 97/240/51
f 82/241/5 96/242/5 98/243/5 83/244/5
f 96/245/53 95/246/53 97/247/53 98/248/53
